<?xml version="1.0" encoding="UTF-8"?>
<svg xmlns="http://www.w3.org/2000/svg" xmlns:xlink="http://www.w3.org/1999/xlink" width="841.8898pt" height="473.563pt" viewBox="0 0 841.8898 473.563">
<defs>
<g>
<g id="glyph-0-0">
<path d="M 1.6875 -5.109375 L 1.6875 -9.078125 L 13.46875 -25.921875 L 19.328125 -25.921875 L 19.328125 -9.5 L 22.5 -9.5 L 22.5 -5.109375 L 19.328125 -5.109375 L 19.328125 0 L 14.296875 0 L 14.296875 -5.109375 Z M 14.609375 -20.515625 L 7.234375 -9.5 L 14.609375 -9.5 Z M 14.609375 -20.515625 "/>
</g>
<g id="glyph-0-1">
<path d="M 4.71875 0.25 C 3.800781 0.25 3.046875 -0.03125 2.453125 -0.59375 C 1.867188 -1.15625 1.578125 -1.859375 1.578125 -2.703125 C 1.578125 -3.535156 1.867188 -4.234375 2.453125 -4.796875 C 3.046875 -5.367188 3.800781 -5.65625 4.71875 -5.65625 C 5.601562 -5.65625 6.332031 -5.367188 6.90625 -4.796875 C 7.488281 -4.234375 7.78125 -3.535156 7.78125 -2.703125 C 7.78125 -1.859375 7.488281 -1.15625 6.90625 -0.59375 C 6.332031 -0.03125 5.601562 0.25 4.71875 0.25 Z M 4.71875 0.25 "/>
</g>
<g id="glyph-0-2">
<path d="M 15.4375 0 L 9.90625 -9.796875 L 7.53125 -9.796875 L 7.53125 0 L 2.484375 0 L 2.484375 -25.125 L 11.921875 -25.125 C 13.859375 -25.125 15.507812 -24.78125 16.875 -24.09375 C 18.25 -23.414062 19.273438 -22.492188 19.953125 -21.328125 C 20.640625 -20.160156 20.984375 -18.859375 20.984375 -17.421875 C 20.984375 -15.765625 20.503906 -14.269531 19.546875 -12.9375 C 18.585938 -11.601562 17.160156 -10.6875 15.265625 -10.1875 L 21.28125 0 Z M 7.53125 -13.578125 L 11.734375 -13.578125 C 13.097656 -13.578125 14.113281 -13.90625 14.78125 -14.5625 C 15.457031 -15.21875 15.796875 -16.132812 15.796875 -17.3125 C 15.796875 -18.46875 15.457031 -19.363281 14.78125 -20 C 14.113281 -20.632812 13.097656 -20.953125 11.734375 -20.953125 L 7.53125 -20.953125 Z M 7.53125 -13.578125 "/>
</g>
<g id="glyph-0-3">
<path d="M 21.03125 -10.40625 C 21.03125 -9.6875 20.976562 -9.035156 20.875 -8.453125 L 6.296875 -8.453125 C 6.421875 -7.015625 6.925781 -5.890625 7.8125 -5.078125 C 8.695312 -4.265625 9.789062 -3.859375 11.09375 -3.859375 C 12.957031 -3.859375 14.285156 -4.660156 15.078125 -6.265625 L 20.515625 -6.265625 C 19.941406 -4.347656 18.835938 -2.769531 17.203125 -1.53125 C 15.578125 -0.289062 13.578125 0.328125 11.203125 0.328125 C 9.273438 0.328125 7.550781 -0.0976562 6.03125 -0.953125 C 4.507812 -1.804688 3.320312 -3.007812 2.46875 -4.5625 C 1.613281 -6.125 1.1875 -7.925781 1.1875 -9.96875 C 1.1875 -12.03125 1.601562 -13.84375 2.4375 -15.40625 C 3.28125 -16.96875 4.457031 -18.164062 5.96875 -19 C 7.488281 -19.84375 9.234375 -20.265625 11.203125 -20.265625 C 13.097656 -20.265625 14.796875 -19.851562 16.296875 -19.03125 C 17.796875 -18.21875 18.957031 -17.0625 19.78125 -15.5625 C 20.613281 -14.0625 21.03125 -12.34375 21.03125 -10.40625 Z M 15.796875 -11.84375 C 15.773438 -13.132812 15.304688 -14.171875 14.390625 -14.953125 C 13.484375 -15.734375 12.367188 -16.125 11.046875 -16.125 C 9.804688 -16.125 8.757812 -15.742188 7.90625 -14.984375 C 7.050781 -14.234375 6.53125 -13.1875 6.34375 -11.84375 Z M 15.796875 -11.84375 "/>
</g>
<g id="glyph-0-4">
<path d="M 10.109375 0.328125 C 8.484375 0.328125 7.019531 0.0351562 5.71875 -0.546875 C 4.425781 -1.140625 3.398438 -1.941406 2.640625 -2.953125 C 1.890625 -3.960938 1.476562 -5.078125 1.40625 -6.296875 L 6.484375 -6.296875 C 6.578125 -5.523438 6.953125 -4.890625 7.609375 -4.390625 C 8.273438 -3.890625 9.097656 -3.640625 10.078125 -3.640625 C 11.035156 -3.640625 11.785156 -3.828125 12.328125 -4.203125 C 12.867188 -4.585938 13.140625 -5.082031 13.140625 -5.6875 C 13.140625 -6.332031 12.804688 -6.816406 12.140625 -7.140625 C 11.484375 -7.460938 10.4375 -7.816406 9 -8.203125 C 7.507812 -8.566406 6.289062 -8.941406 5.34375 -9.328125 C 4.394531 -9.710938 3.578125 -10.300781 2.890625 -11.09375 C 2.210938 -11.882812 1.875 -12.953125 1.875 -14.296875 C 1.875 -15.398438 2.191406 -16.40625 2.828125 -17.3125 C 3.460938 -18.226562 4.375 -18.945312 5.5625 -19.46875 C 6.75 -20 8.144531 -20.265625 9.75 -20.265625 C 12.125 -20.265625 14.019531 -19.671875 15.4375 -18.484375 C 16.851562 -17.296875 17.632812 -15.695312 17.78125 -13.6875 L 12.953125 -13.6875 C 12.890625 -14.476562 12.5625 -15.101562 11.96875 -15.5625 C 11.382812 -16.03125 10.597656 -16.265625 9.609375 -16.265625 C 8.703125 -16.265625 8 -16.097656 7.5 -15.765625 C 7.007812 -15.429688 6.765625 -14.960938 6.765625 -14.359375 C 6.765625 -13.691406 7.097656 -13.179688 7.765625 -12.828125 C 8.441406 -12.484375 9.488281 -12.128906 10.90625 -11.765625 C 12.34375 -11.410156 13.53125 -11.039062 14.46875 -10.65625 C 15.40625 -10.269531 16.210938 -9.675781 16.890625 -8.875 C 17.578125 -8.070312 17.9375 -7.007812 17.96875 -5.6875 C 17.96875 -4.53125 17.648438 -3.492188 17.015625 -2.578125 C 16.378906 -1.671875 15.460938 -0.957031 14.265625 -0.4375 C 13.078125 0.0703125 11.691406 0.328125 10.109375 0.328125 Z M 10.109375 0.328125 "/>
</g>
<g id="glyph-0-5">
<path d="M 21.3125 -19.9375 L 21.3125 0 L 16.234375 0 L 16.234375 -2.515625 C 15.585938 -1.648438 14.738281 -0.972656 13.6875 -0.484375 C 12.644531 0.00390625 11.515625 0.25 10.296875 0.25 C 8.734375 0.25 7.351562 -0.078125 6.15625 -0.734375 C 4.957031 -1.398438 4.015625 -2.375 3.328125 -3.65625 C 2.640625 -4.9375 2.296875 -6.46875 2.296875 -8.25 L 2.296875 -19.9375 L 7.34375 -19.9375 L 7.34375 -8.96875 C 7.34375 -7.382812 7.738281 -6.164062 8.53125 -5.3125 C 9.320312 -4.457031 10.398438 -4.03125 11.765625 -4.03125 C 13.160156 -4.03125 14.253906 -4.457031 15.046875 -5.3125 C 15.835938 -6.164062 16.234375 -7.382812 16.234375 -8.96875 L 16.234375 -19.9375 Z M 21.3125 -19.9375 "/>
</g>
<g id="glyph-0-6">
<path d="M 7.53125 -26.640625 L 7.53125 0 L 2.484375 0 L 2.484375 -26.640625 Z M 7.53125 -26.640625 "/>
</g>
<g id="glyph-0-7">
<path d="M 8.359375 -15.796875 L 8.359375 -6.15625 C 8.359375 -5.476562 8.519531 -4.988281 8.84375 -4.6875 C 9.164062 -4.394531 9.707031 -4.25 10.46875 -4.25 L 12.8125 -4.25 L 12.8125 0 L 9.640625 0 C 5.398438 0 3.28125 -2.0625 3.28125 -6.1875 L 3.28125 -15.796875 L 0.90625 -15.796875 L 0.90625 -19.9375 L 3.28125 -19.9375 L 3.28125 -24.875 L 8.359375 -24.875 L 8.359375 -19.9375 L 12.8125 -19.9375 L 12.8125 -15.796875 Z M 8.359375 -15.796875 "/>
</g>
</g>
</defs>
<g fill="rgb(1.568604%, 20.783997%, 28.627014%)" fill-opacity="1">
<use xlink:href="#glyph-0-0" x="332.8169" y="221.72628"/>
<use xlink:href="#glyph-0-1" x="356.6129" y="221.72628"/>
</g>
<g fill="rgb(1.568604%, 20.783997%, 28.627014%)" fill-opacity="1">
<use xlink:href="#glyph-0-2" x="376.7729" y="221.72628"/>
<use xlink:href="#glyph-0-3" x="399.8489" y="221.72628"/>
<use xlink:href="#glyph-0-4" x="422.0609" y="221.72628"/>
<use xlink:href="#glyph-0-5" x="441.6809" y="221.72628"/>
<use xlink:href="#glyph-0-6" x="465.4769" y="221.72628"/>
<use xlink:href="#glyph-0-7" x="475.4849" y="221.72628"/>
<use xlink:href="#glyph-0-4" x="489.4529" y="221.72628"/>
</g>
</svg>
