<svg viewBox="0 0 252.384888189 180.17031748" width="252.384888189pt" height="180.17031748pt" xmlns="http://www.w3.org/2000/svg" xmlns:xlink="http://www.w3.org/1999/xlink" xmlns:h5="http://www.w3.org/1999/xhtml"><path fill="#ffffff" fill-rule="nonzero" d="M 0 0v 180.17031748h 252.384888189v -180.17031748Z "/><g transform="scale(0.8)"><path fill="none" stroke="#000000" stroke-width="1" stroke-linecap="butt" stroke-linejoin="miter" stroke-miterlimit="4" transform="translate(28.493 9.1205)" d="M 0 0m 0 0h 255.118110236"/><path fill="none" transform="translate(0.143)" d="M 0 0m 0 0h 28.35v 18.241h -28.35v -18.241Z "/><g transform="translate(0.143 -7.9e-8)"><g transform="matrix(1 0 0 -1 4 11.513)"><use xlink:href="#gA4AC33BF76001B15D203F6668E9483BD" x="0" y="0" fill="#000000" fill-rule="nonzero"/></g><g transform="matrix(1 0 0 -1 10.292 11.513)"><use xlink:href="#gCBFDB4FAA60E8030E7B751E03D6CAAA6" x="0" y="0" fill="#000000" fill-rule="nonzero"/></g><g transform="matrix(1 0 0 -1 14.571 11.513)"><use xlink:href="#g18E9A2F0F5286FD67B2F2437F78BB061" x="0" y="0" fill="#000000" fill-rule="nonzero"/></g><g transform="matrix(1 0 0 -1 20.071 11.513)"><use xlink:href="#g11C1096A524ED08942C2BB5E0564A17C" x="0" y="0" fill="#000000" fill-rule="nonzero"/></g></g><path fill="none" transform="translate(283.611110236)" d="M 0 0m 0 0h 31.727v 18.241h -31.727v -18.241Z "/><g transform="translate(283.611110173 -7.9e-8)"><g transform="matrix(1 0 0 -1 4 11.513)"><use xlink:href="#g481AE727E6F914D5199E83A214575C36" x="0" y="0" fill="#000000" fill-rule="nonzero"/></g><g transform="matrix(1 0 0 -1 13.669 11.513)"><use xlink:href="#gCBFDB4FAA60E8030E7B751E03D6CAAA6" x="0" y="0" fill="#000000" fill-rule="nonzero"/></g><g transform="matrix(1 0 0 -1 17.948 11.513)"><use xlink:href="#g18E9A2F0F5286FD67B2F2437F78BB061" x="0" y="0" fill="#000000" fill-rule="nonzero"/></g><g transform="matrix(1 0 0 -1 23.448 11.513)"><use xlink:href="#g11C1096A524ED08942C2BB5E0564A17C" x="0" y="0" fill="#000000" fill-rule="nonzero"/></g></g><path fill="none" stroke="#000000" stroke-width="1" stroke-linecap="butt" stroke-linejoin="miter" stroke-miterlimit="4" transform="translate(28.493 37.466956693)" d="M 0 0m 0 0h 255.118110236"/><path fill="none" transform="translate(0.143 28.346456693)" d="M 0 0m 0 0h 28.35v 18.241h -28.35v -18.241Z "/><g transform="translate(0.143 28.346456614)"><g transform="matrix(1 0 0 -1 4 11.513)"><use xlink:href="#gA4AC33BF76001B15D203F6668E9483BD" x="0" y="0" fill="#000000" fill-rule="nonzero"/></g><g transform="matrix(1 0 0 -1 10.292 11.513)"><use xlink:href="#gCBFDB4FAA60E8030E7B751E03D6CAAA6" x="0" y="0" fill="#000000" fill-rule="nonzero"/></g><g transform="matrix(1 0 0 -1 14.571 11.513)"><use xlink:href="#g5B440C03A6991C2AE1CF687F6CF909A" x="0" y="0" fill="#000000" fill-rule="nonzero"/></g><g transform="matrix(1 0 0 -1 20.071 11.513)"><use xlink:href="#g11C1096A524ED08942C2BB5E0564A17C" x="0" y="0" fill="#000000" fill-rule="nonzero"/></g></g><path fill="none" transform="translate(283.611110236 28.346456693)" d="M 0 0m 0 0h 31.727v 18.241h -31.727v -18.241Z "/><g transform="translate(283.611110173 28.346456614)"><g transform="matrix(1 0 0 -1 4 11.513)"><use xlink:href="#g481AE727E6F914D5199E83A214575C36" x="0" y="0" fill="#000000" fill-rule="nonzero"/></g><g transform="matrix(1 0 0 -1 13.669 11.513)"><use xlink:href="#gCBFDB4FAA60E8030E7B751E03D6CAAA6" x="0" y="0" fill="#000000" fill-rule="nonzero"/></g><g transform="matrix(1 0 0 -1 17.948 11.513)"><use xlink:href="#g3E2A4E29F5F78B7482203F9341039E72" x="0" y="0" fill="#000000" fill-rule="nonzero"/></g><g transform="matrix(1 0 0 -1 23.448 11.513)"><use xlink:href="#g11C1096A524ED08942C2BB5E0564A17C" x="0" y="0" fill="#000000" fill-rule="nonzero"/></g></g><path fill="none" stroke="#000000" stroke-width="1" stroke-linecap="butt" stroke-linejoin="miter" stroke-miterlimit="4" transform="translate(28.493 65.813413386)" d="M 0 0m 0 0h 255.118110236"/><path fill="none" transform="translate(0.143 56.692913386)" d="M 0 0h 28.35v 18.241h -28.35v -18.241Z "/><g transform="translate(0.143 56.692913307)"><g transform="matrix(1 0 0 -1 4 11.513)"><use xlink:href="#gA4AC33BF76001B15D203F6668E9483BD" x="0" y="0" fill="#000000" fill-rule="nonzero"/></g><g transform="matrix(1 0 0 -1 10.292 11.513)"><use xlink:href="#gCBFDB4FAA60E8030E7B751E03D6CAAA6" x="0" y="0" fill="#000000" fill-rule="nonzero"/></g><g transform="matrix(1 0 0 -1 14.571 11.513)"><use xlink:href="#g5037E03A0CBEB30198DBAC9F97CDF04F" x="0" y="0" fill="#000000" fill-rule="nonzero"/></g><g transform="matrix(1 0 0 -1 20.071 11.513)"><use xlink:href="#g11C1096A524ED08942C2BB5E0564A17C" x="0" y="0" fill="#000000" fill-rule="nonzero"/></g></g><path fill="none" transform="translate(283.611110236 56.692913386)" d="M 0 0h 31.727v 18.241h -31.727v -18.241Z "/><g transform="translate(283.611110173 56.692913307)"><g transform="matrix(1 0 0 -1 4 11.513)"><use xlink:href="#g481AE727E6F914D5199E83A214575C36" x="0" y="0" fill="#000000" fill-rule="nonzero"/></g><g transform="matrix(1 0 0 -1 13.669 11.513)"><use xlink:href="#gCBFDB4FAA60E8030E7B751E03D6CAAA6" x="0" y="0" fill="#000000" fill-rule="nonzero"/></g><g transform="matrix(1 0 0 -1 17.948 11.513)"><use xlink:href="#g5037E03A0CBEB30198DBAC9F97CDF04F" x="0" y="0" fill="#000000" fill-rule="nonzero"/></g><g transform="matrix(1 0 0 -1 23.448 11.513)"><use xlink:href="#g11C1096A524ED08942C2BB5E0564A17C" x="0" y="0" fill="#000000" fill-rule="nonzero"/></g></g><path fill="none" stroke="#000000" stroke-width="1" stroke-linecap="butt" stroke-linejoin="miter" stroke-miterlimit="4" transform="translate(28.493 94.159870079)" d="M 0 0m 0 0h 255.118110236"/><path fill="none" transform="translate(0.143 85.039370079)" d="M 0 0m 0 0h 28.35v 18.241h -28.35v -18.241Z "/><g transform="translate(0.143 85.03937)"><g transform="matrix(1 0 0 -1 4 11.513)"><use xlink:href="#gA4AC33BF76001B15D203F6668E9483BD" x="0" y="0" fill="#000000" fill-rule="nonzero"/></g><g transform="matrix(1 0 0 -1 10.292 11.513)"><use xlink:href="#gCBFDB4FAA60E8030E7B751E03D6CAAA6" x="0" y="0" fill="#000000" fill-rule="nonzero"/></g><g transform="matrix(1 0 0 -1 14.571 11.513)"><use xlink:href="#gBD401770F8867B490949D5AE1AB3F82" x="0" y="0" fill="#000000" fill-rule="nonzero"/></g><g transform="matrix(1 0 0 -1 20.071 11.513)"><use xlink:href="#g11C1096A524ED08942C2BB5E0564A17C" x="0" y="0" fill="#000000" fill-rule="nonzero"/></g></g><path fill="none" transform="translate(283.611110236 85.039370079)" d="M 0 0m 0 0h 31.727v 18.241h -31.727v -18.241Z "/><g transform="translate(283.611110173 85.03937)"><g transform="matrix(1 0 0 -1 4 11.513)"><use xlink:href="#g481AE727E6F914D5199E83A214575C36" x="0" y="0" fill="#000000" fill-rule="nonzero"/></g><g transform="matrix(1 0 0 -1 13.669 11.513)"><use xlink:href="#gCBFDB4FAA60E8030E7B751E03D6CAAA6" x="0" y="0" fill="#000000" fill-rule="nonzero"/></g><g transform="matrix(1 0 0 -1 17.948 11.513)"><use xlink:href="#gC63E28D2FF745BC8AEDEB058F758CC95" x="0" y="0" fill="#000000" fill-rule="nonzero"/></g><g transform="matrix(1 0 0 -1 23.448 11.513)"><use xlink:href="#g11C1096A524ED08942C2BB5E0564A17C" x="0" y="0" fill="#000000" fill-rule="nonzero"/></g></g><path fill="none" stroke="#000000" stroke-width="1" stroke-linecap="butt" stroke-linejoin="miter" stroke-miterlimit="4" transform="translate(28.493 122.506326772)" d="M 0 0h 255.118110236"/><path fill="none" transform="translate(0.143 113.385826772)" d="M 0 0h 28.35v 18.241h -28.35v -18.241Z "/><g transform="translate(0.143 113.385826693)"><g transform="matrix(1 0 0 -1 4 11.513)"><use xlink:href="#gA4AC33BF76001B15D203F6668E9483BD" x="0" y="0" fill="#000000" fill-rule="nonzero"/></g><g transform="matrix(1 0 0 -1 10.292 11.513)"><use xlink:href="#gCBFDB4FAA60E8030E7B751E03D6CAAA6" x="0" y="0" fill="#000000" fill-rule="nonzero"/></g><g transform="matrix(1 0 0 -1 14.571 11.513)"><use xlink:href="#g3E2A4E29F5F78B7482203F9341039E72" x="0" y="0" fill="#000000" fill-rule="nonzero"/></g><g transform="matrix(1 0 0 -1 20.071 11.513)"><use xlink:href="#g11C1096A524ED08942C2BB5E0564A17C" x="0" y="0" fill="#000000" fill-rule="nonzero"/></g></g><path fill="none" transform="translate(283.611110236 113.385826772)" d="M 0 0h 31.727v 18.241h -31.727v -18.241Z "/><g transform="translate(283.611110173 113.385826693)"><g transform="matrix(1 0 0 -1 4 11.513)"><use xlink:href="#g481AE727E6F914D5199E83A214575C36" x="0" y="0" fill="#000000" fill-rule="nonzero"/></g><g transform="matrix(1 0 0 -1 13.669 11.513)"><use xlink:href="#gCBFDB4FAA60E8030E7B751E03D6CAAA6" x="0" y="0" fill="#000000" fill-rule="nonzero"/></g><g transform="matrix(1 0 0 -1 17.948 11.513)"><use xlink:href="#g5B440C03A6991C2AE1CF687F6CF909A" x="0" y="0" fill="#000000" fill-rule="nonzero"/></g><g transform="matrix(1 0 0 -1 23.448 11.513)"><use xlink:href="#g11C1096A524ED08942C2BB5E0564A17C" x="0" y="0" fill="#000000" fill-rule="nonzero"/></g></g><path fill="none" stroke="#000000" stroke-width="1" stroke-linecap="butt" stroke-linejoin="miter" stroke-miterlimit="4" transform="translate(28.493 150.852783465)" d="M 0 0h 255.118110236"/><path fill="none" transform="translate(0.143 141.732283465)" d="M 0 0h 28.35v 18.241h -28.35v -18.241Z "/><g transform="translate(0.143 141.732283386)"><g transform="matrix(1 0 0 -1 4 11.513)"><use xlink:href="#gA4AC33BF76001B15D203F6668E9483BD" x="0" y="0" fill="#000000" fill-rule="nonzero"/></g><g transform="matrix(1 0 0 -1 10.292 11.513)"><use xlink:href="#gCBFDB4FAA60E8030E7B751E03D6CAAA6" x="0" y="0" fill="#000000" fill-rule="nonzero"/></g><g transform="matrix(1 0 0 -1 14.571 11.513)"><use xlink:href="#gE3AFFB6D3A6969089B1BA192752CE6D1" x="0" y="0" fill="#000000" fill-rule="nonzero"/></g><g transform="matrix(1 0 0 -1 20.071 11.513)"><use xlink:href="#g11C1096A524ED08942C2BB5E0564A17C" x="0" y="0" fill="#000000" fill-rule="nonzero"/></g></g><path fill="none" transform="translate(283.611110236 141.732283465)" d="M 0 0h 31.727v 18.241h -31.727v -18.241Z "/><g transform="translate(283.611110173 141.732283386)"><g transform="matrix(1 0 0 -1 4 11.513)"><use xlink:href="#g481AE727E6F914D5199E83A214575C36" x="0" y="0" fill="#000000" fill-rule="nonzero"/></g><g transform="matrix(1 0 0 -1 13.669 11.513)"><use xlink:href="#gCBFDB4FAA60E8030E7B751E03D6CAAA6" x="0" y="0" fill="#000000" fill-rule="nonzero"/></g><g transform="matrix(1 0 0 -1 17.948 11.513)"><use xlink:href="#gE3AFFB6D3A6969089B1BA192752CE6D1" x="0" y="0" fill="#000000" fill-rule="nonzero"/></g><g transform="matrix(1 0 0 -1 23.448 11.513)"><use xlink:href="#g11C1096A524ED08942C2BB5E0564A17C" x="0" y="0" fill="#000000" fill-rule="nonzero"/></g></g><path fill="none" stroke="#000000" stroke-width="1" stroke-linecap="butt" stroke-linejoin="miter" stroke-miterlimit="4" transform="translate(28.493 179.199240157)" d="M 0 0h 255.118110236"/><path fill="none" transform="translate(0.143 170.078740157)" d="M 0 0h 28.35v 18.241h -28.35v -18.241Z "/><g transform="translate(0.143 170.078740079)"><g transform="matrix(1 0 0 -1 4 11.513)"><use xlink:href="#gA4AC33BF76001B15D203F6668E9483BD" x="0" y="0" fill="#000000" fill-rule="nonzero"/></g><g transform="matrix(1 0 0 -1 10.292 11.513)"><use xlink:href="#gCBFDB4FAA60E8030E7B751E03D6CAAA6" x="0" y="0" fill="#000000" fill-rule="nonzero"/></g><g transform="matrix(1 0 0 -1 14.571 11.513)"><use xlink:href="#gC63E28D2FF745BC8AEDEB058F758CC95" x="0" y="0" fill="#000000" fill-rule="nonzero"/></g><g transform="matrix(1 0 0 -1 20.071 11.513)"><use xlink:href="#g11C1096A524ED08942C2BB5E0564A17C" x="0" y="0" fill="#000000" fill-rule="nonzero"/></g></g><path fill="none" transform="translate(283.611110236 170.078740157)" d="M 0 0h 31.727v 18.241h -31.727v -18.241Z "/><g transform="translate(283.611110173 170.078740079)"><g transform="matrix(1 0 0 -1 4 11.513)"><use xlink:href="#g481AE727E6F914D5199E83A214575C36" x="0" y="0" fill="#000000" fill-rule="nonzero"/></g><g transform="matrix(1 0 0 -1 13.669 11.513)"><use xlink:href="#gCBFDB4FAA60E8030E7B751E03D6CAAA6" x="0" y="0" fill="#000000" fill-rule="nonzero"/></g><g transform="matrix(1 0 0 -1 17.948 11.513)"><use xlink:href="#gBD401770F8867B490949D5AE1AB3F82" x="0" y="0" fill="#000000" fill-rule="nonzero"/></g><g transform="matrix(1 0 0 -1 23.448 11.513)"><use xlink:href="#g11C1096A524ED08942C2BB5E0564A17C" x="0" y="0" fill="#000000" fill-rule="nonzero"/></g></g><path fill="none" stroke="#000000" stroke-width="1" stroke-linecap="butt" stroke-linejoin="miter" stroke-miterlimit="4" transform="translate(28.493 207.54569685)" d="M 0 0h 255.118110236"/><path fill="none" transform="translate(0 198.42519685)" d="M 0 0h 28.493v 18.241h -28.493v -18.241Z "/><g transform="translate(-1.1e-7 198.425196772)"><g transform="matrix(1 0 0 -1 4 11.513)"><use xlink:href="#gA4AC33BF76001B15D203F6668E9483BD" x="0" y="0" fill="#000000" fill-rule="nonzero"/></g><g transform="matrix(1 0 0 -1 10.292 11.513)"><use xlink:href="#gCBFDB4FAA60E8030E7B751E03D6CAAA6" x="0" y="0" fill="#000000" fill-rule="nonzero"/></g><g transform="matrix(1 0 0 -1 14.571 11.513)"><use xlink:href="#g8B3FA07D93F5CD200BBF8A3D70170575" x="0" y="0" fill="#000000" fill-rule="nonzero"/></g><g transform="matrix(1 0 0 -1 20.214 11.513)"><use xlink:href="#g11C1096A524ED08942C2BB5E0564A17C" x="0" y="0" fill="#000000" fill-rule="nonzero"/></g></g><path fill="none" transform="translate(283.611110236 198.42519685)" d="M 0 0h 31.87v 18.241h -31.87v -18.241Z "/><g transform="translate(283.611110205 198.425196772)"><g transform="matrix(1 0 0 -1 4 11.513)"><use xlink:href="#g481AE727E6F914D5199E83A214575C36" x="0" y="0" fill="#000000" fill-rule="nonzero"/></g><g transform="matrix(1 0 0 -1 13.669 11.513)"><use xlink:href="#gCBFDB4FAA60E8030E7B751E03D6CAAA6" x="0" y="0" fill="#000000" fill-rule="nonzero"/></g><g transform="matrix(1 0 0 -1 17.948 11.513)"><use xlink:href="#g8B3FA07D93F5CD200BBF8A3D70170575" x="0" y="0" fill="#000000" fill-rule="nonzero"/></g><g transform="matrix(1 0 0 -1 23.591 11.513)"><use xlink:href="#g11C1096A524ED08942C2BB5E0564A17C" x="0" y="0" fill="#000000" fill-rule="nonzero"/></g></g><path fill="none" stroke="#000000" stroke-width="1" stroke-linecap="butt" stroke-linejoin="miter" stroke-miterlimit="4" transform="translate(71.012685039 9.1205)" d="M 0 0m 0 0l 42.519685039 28.346456693"/><path fill="none" stroke="#000000" stroke-width="1" stroke-linecap="butt" stroke-linejoin="miter" stroke-miterlimit="4" transform="translate(71.012685039 9.1205)" d="M 0 0m 0 28.346456693l 42.519685039 -28.346456693"/><path fill="#ffffff" fill-rule="nonzero" stroke="#000000" stroke-width="1" stroke-linecap="butt" stroke-linejoin="miter" stroke-miterlimit="4" transform="translate(69.012685039 7.1205)" d="M 0 0m 2 4c -1.103568 0 -2 -0.896432 -2 -2c 0 -1.103568 0.896432 -2 2 -2c 1.103568 0 2 0.896432 2 2c 0 1.103568 -0.896432 2 -2 2Z "/><path fill="#ffffff" fill-rule="nonzero" stroke="#000000" stroke-width="1" stroke-linecap="butt" stroke-linejoin="miter" stroke-miterlimit="4" transform="translate(111.532370079 7.1205)" d="M 0 0m 2 4c -1.103568 0 -2 -0.896432 -2 -2c 0 -1.103568 0.896432 -2 2 -2c 1.103568 0 2 0.896432 2 2c 0 1.103568 -0.896432 2 -2 2Z "/><path fill="none" stroke="#000000" stroke-width="1" stroke-linecap="butt" stroke-linejoin="miter" stroke-miterlimit="4" transform="translate(71.012685039 37.466956693)" d="M 0 0m 0 0h 36.843687565"/><path fill="none" stroke="#000000" stroke-width="1" stroke-linecap="butt" stroke-linejoin="miter" stroke-miterlimit="4" stroke-dashoffset="0" stroke-dasharray="" transform="translate(102.187109611 35.340972441)" d="M 0 0m 0 0l 5.669291339 2.125984252l -5.669291339 2.125984252"/><path fill="none" transform="translate(97.241629921 37.466956693)" d="M 0 0m 0 0h 16.424v 15.28h -16.424v -15.28Z "/><g transform="translate(97.241629811 37.466956614)"><g transform="matrix(1 0 0 -1 5 10.264)"><use xlink:href="#g7783EC9FB0C16305C83035E8146994B5" x="0" y="0" fill="#000000" fill-rule="nonzero"/><use xlink:href="#g8C50DFC0B8272CD73341C65811BD0E92" x="2.704" y="0" fill="#000000" fill-rule="nonzero"/></g></g><path fill="#ffffff" fill-rule="nonzero" stroke="#000000" stroke-width="1" stroke-linecap="butt" stroke-linejoin="miter" stroke-miterlimit="4" transform="translate(69.012685039 35.466956693)" d="M 0 0m 2 4c -1.103568 0 -2 -0.896432 -2 -2c 0 -1.103568 0.896432 -2 2 -2c 1.103568 0 2 0.896432 2 2c 0 1.103568 -0.896432 2 -2 2Z "/><path fill="#ffffff" fill-rule="nonzero" stroke="#000000" stroke-width="1" stroke-linecap="butt" stroke-linejoin="miter" stroke-miterlimit="4" transform="translate(111.532370079 35.466956693)" d="M 0 0m 2 4c -1.103568 0 -2 -0.896432 -2 -2c 0 -1.103568 0.896432 -2 2 -2c 1.103568 0 2 0.896432 2 2c 0 1.103568 -0.896432 2 -2 2Z "/><path fill="none" stroke="#000000" stroke-width="1" stroke-linecap="butt" stroke-linejoin="miter" stroke-miterlimit="4" transform="translate(28.493 37.466956693)" d="M 0 0m 0 0h 28.339750557"/><path fill="none" stroke="#000000" stroke-width="1" stroke-linecap="butt" stroke-linejoin="miter" stroke-miterlimit="4" stroke-dashoffset="0" stroke-dasharray="" transform="translate(51.163487564 35.340972441)" d="M 0 0m 0 0l 5.669291339 2.125984252l -5.669291339 2.125984252"/><path fill="none" transform="translate(44.159201575 37.466956693)" d="M 0 0m 0 0h 22.2424v 17.6672h -22.2424v -17.6672Z "/><g transform="translate(44.159201496 37.46695663)"><g transform="matrix(1 0 0 -1 5 10.464)"><use xlink:href="#g17B77B0884E370928E37ECB91408B9E1" x="0" y="0" fill="#000000" fill-rule="nonzero"/></g><g transform="matrix(1 0 0 -1 13.608 7.4448)"><use xlink:href="#g826D2F4A0230094444E649B7D92F1243" x="0" y="0" fill="#000000" fill-rule="nonzero"/></g><g transform="matrix(1 0 0 -1 11.752 12.5552)"><use xlink:href="#g9EC2FBF0332AF9453F122699A0413196" x="0" y="0" fill="#000000" fill-rule="nonzero"/></g></g><path fill="none" stroke="#000000" stroke-width="1" stroke-linecap="butt" stroke-linejoin="miter" stroke-miterlimit="4" transform="translate(71.012685039 65.813413386)" d="M 0 0m 0 0l 42.519685039 28.346456693"/><path fill="none" stroke="#000000" stroke-width="1" stroke-linecap="butt" stroke-linejoin="miter" stroke-miterlimit="4" transform="translate(71.012685039 65.813413386)" d="M 0 0m 0 28.346456693l 42.519685039 -28.346456693"/><path fill="#ffffff" fill-rule="nonzero" stroke="#000000" stroke-width="1" stroke-linecap="butt" stroke-linejoin="miter" stroke-miterlimit="4" transform="translate(69.012685039 63.813413386)" d="M 0 0m 2 4c -1.103568 0 -2 -0.896432 -2 -2c 0 -1.103568 0.896432 -2 2 -2c 1.103568 0 2 0.896432 2 2c 0 1.103568 -0.896432 2 -2 2Z "/><path fill="#ffffff" fill-rule="nonzero" stroke="#000000" stroke-width="1" stroke-linecap="butt" stroke-linejoin="miter" stroke-miterlimit="4" transform="translate(111.532370079 63.813413386)" d="M 0 0m 2 4c -1.103568 0 -2 -0.896432 -2 -2c 0 -1.103568 0.896432 -2 2 -2c 1.103568 0 2 0.896432 2 2c 0 1.103568 -0.896432 2 -2 2Z "/><path fill="none" stroke="#000000" stroke-width="1" stroke-linecap="butt" stroke-linejoin="miter" stroke-miterlimit="4" transform="translate(71.012685039 94.159870079)" d="M 0 0m 0 0h 36.843687565"/><path fill="none" stroke="#000000" stroke-width="1" stroke-linecap="butt" stroke-linejoin="miter" stroke-miterlimit="4" stroke-dashoffset="0" stroke-dasharray="" transform="translate(102.187109611 92.033885827)" d="M 0 0m 0 0l 5.669291339 2.125984252l -5.669291339 2.125984252"/><path fill="none" transform="translate(97.241629921 94.159870079)" d="M 0 0m 0 0h 16.424v 15.28h -16.424v -15.28Z "/><g transform="translate(97.241629811 94.15987)"><g transform="matrix(1 0 0 -1 5 10.264)"><use xlink:href="#g7783EC9FB0C16305C83035E8146994B5" x="0" y="0" fill="#000000" fill-rule="nonzero"/><use xlink:href="#g8C50DFC0B8272CD73341C65811BD0E92" x="2.704" y="0" fill="#000000" fill-rule="nonzero"/></g></g><path fill="#ffffff" fill-rule="nonzero" stroke="#000000" stroke-width="1" stroke-linecap="butt" stroke-linejoin="miter" stroke-miterlimit="4" transform="translate(69.012685039 92.159870079)" d="M 0 0m 2 4c -1.103568 0 -2 -0.896432 -2 -2c 0 -1.103568 0.896432 -2 2 -2c 1.103568 0 2 0.896432 2 2c 0 1.103568 -0.896432 2 -2 2Z "/><path fill="#ffffff" fill-rule="nonzero" stroke="#000000" stroke-width="1" stroke-linecap="butt" stroke-linejoin="miter" stroke-miterlimit="4" transform="translate(111.532370079 92.159870079)" d="M 0 0m 2 4c -1.103568 0 -2 -0.896432 -2 -2c 0 -1.103568 0.896432 -2 2 -2c 1.103568 0 2 0.896432 2 2c 0 1.103568 -0.896432 2 -2 2Z "/><path fill="none" stroke="#000000" stroke-width="1" stroke-linecap="butt" stroke-linejoin="miter" stroke-miterlimit="4" transform="translate(28.493 94.159870079)" d="M 0 0m 0 0h 28.339750557"/><path fill="none" stroke="#000000" stroke-width="1" stroke-linecap="butt" stroke-linejoin="miter" stroke-miterlimit="4" stroke-dashoffset="0" stroke-dasharray="" transform="translate(51.163487564 92.033885827)" d="M 0 0m 0 0l 5.669291339 2.125984252l -5.669291339 2.125984252"/><path fill="none" transform="translate(44.159201575 94.159870079)" d="M 0 0m 0 0h 22.2424v 17.6672h -22.2424v -17.6672Z "/><g transform="translate(44.159201496 94.159870016)"><g transform="matrix(1 0 0 -1 5 10.464)"><use xlink:href="#g17B77B0884E370928E37ECB91408B9E1" x="0" y="0" fill="#000000" fill-rule="nonzero"/></g><g transform="matrix(1 0 0 -1 13.608 7.4448)"><use xlink:href="#g826D2F4A0230094444E649B7D92F1243" x="0" y="0" fill="#000000" fill-rule="nonzero"/></g><g transform="matrix(1 0 0 -1 11.752 12.5552)"><use xlink:href="#g9EC2FBF0332AF9453F122699A0413196" x="0" y="0" fill="#000000" fill-rule="nonzero"/></g></g><path fill="none" stroke="#000000" stroke-width="1" stroke-linecap="butt" stroke-linejoin="miter" stroke-miterlimit="4" transform="translate(71.012685039 122.506326772)" d="M 0 0l 42.519685039 28.346456693"/><path fill="none" stroke="#000000" stroke-width="1" stroke-linecap="butt" stroke-linejoin="miter" stroke-miterlimit="4" transform="translate(71.012685039 122.506326772)" d="M 0 0m 0 28.346456693l 42.519685039 -28.346456693"/><path fill="#ffffff" fill-rule="nonzero" stroke="#000000" stroke-width="1" stroke-linecap="butt" stroke-linejoin="miter" stroke-miterlimit="4" transform="translate(69.012685039 120.506326772)" d="M 0 0m 2 4c -1.103568 0 -2 -0.896432 -2 -2c 0 -1.103568 0.896432 -2 2 -2c 1.103568 0 2 0.896432 2 2c 0 1.103568 -0.896432 2 -2 2Z "/><path fill="#ffffff" fill-rule="nonzero" stroke="#000000" stroke-width="1" stroke-linecap="butt" stroke-linejoin="miter" stroke-miterlimit="4" transform="translate(111.532370079 120.506326772)" d="M 0 0m 2 4c -1.103568 0 -2 -0.896432 -2 -2c 0 -1.103568 0.896432 -2 2 -2c 1.103568 0 2 0.896432 2 2c 0 1.103568 -0.896432 2 -2 2Z "/><path fill="none" stroke="#000000" stroke-width="1" stroke-linecap="butt" stroke-linejoin="miter" stroke-miterlimit="4" transform="translate(71.012685039 150.852783465)" d="M 0 0h 36.843687565"/><path fill="none" stroke="#000000" stroke-width="1" stroke-linecap="butt" stroke-linejoin="miter" stroke-miterlimit="4" stroke-dashoffset="0" stroke-dasharray="" transform="translate(102.187109611 148.726799213)" d="M 0 0l 5.669291339 2.125984252l -5.669291339 2.125984252"/><path fill="none" transform="translate(97.241629921 150.852783465)" d="M 0 0h 16.424v 15.28h -16.424v -15.28Z "/><g transform="translate(97.241629811 150.852783386)"><g transform="matrix(1 0 0 -1 5 10.264)"><use xlink:href="#g7783EC9FB0C16305C83035E8146994B5" x="0" y="0" fill="#000000" fill-rule="nonzero"/><use xlink:href="#g8C50DFC0B8272CD73341C65811BD0E92" x="2.704" y="0" fill="#000000" fill-rule="nonzero"/></g></g><path fill="#ffffff" fill-rule="nonzero" stroke="#000000" stroke-width="1" stroke-linecap="butt" stroke-linejoin="miter" stroke-miterlimit="4" transform="translate(69.012685039 148.852783465)" d="M 0 0m 2 4c -1.103568 0 -2 -0.896432 -2 -2c 0 -1.103568 0.896432 -2 2 -2c 1.103568 0 2 0.896432 2 2c 0 1.103568 -0.896432 2 -2 2Z "/><path fill="#ffffff" fill-rule="nonzero" stroke="#000000" stroke-width="1" stroke-linecap="butt" stroke-linejoin="miter" stroke-miterlimit="4" transform="translate(111.532370079 148.852783465)" d="M 0 0m 2 4c -1.103568 0 -2 -0.896432 -2 -2c 0 -1.103568 0.896432 -2 2 -2c 1.103568 0 2 0.896432 2 2c 0 1.103568 -0.896432 2 -2 2Z "/><path fill="none" stroke="#000000" stroke-width="1" stroke-linecap="butt" stroke-linejoin="miter" stroke-miterlimit="4" transform="translate(28.493 150.852783465)" d="M 0 0h 28.339750557"/><path fill="none" stroke="#000000" stroke-width="1" stroke-linecap="butt" stroke-linejoin="miter" stroke-miterlimit="4" stroke-dashoffset="0" stroke-dasharray="" transform="translate(51.163487564 148.726799213)" d="M 0 0l 5.669291339 2.125984252l -5.669291339 2.125984252"/><path fill="none" transform="translate(44.159201575 150.852783465)" d="M 0 0h 22.2424v 17.6672h -22.2424v -17.6672Z "/><g transform="translate(44.159201496 150.852783402)"><g transform="matrix(1 0 0 -1 5 10.464)"><use xlink:href="#g17B77B0884E370928E37ECB91408B9E1" x="0" y="0" fill="#000000" fill-rule="nonzero"/></g><g transform="matrix(1 0 0 -1 13.608 7.4448)"><use xlink:href="#g826D2F4A0230094444E649B7D92F1243" x="0" y="0" fill="#000000" fill-rule="nonzero"/></g><g transform="matrix(1 0 0 -1 11.752 12.5552)"><use xlink:href="#g9EC2FBF0332AF9453F122699A0413196" x="0" y="0" fill="#000000" fill-rule="nonzero"/></g></g><path fill="none" stroke="#000000" stroke-width="1" stroke-linecap="butt" stroke-linejoin="miter" stroke-miterlimit="4" transform="translate(71.012685039 179.199240157)" d="M 0 0l 42.519685039 28.346456693"/><path fill="none" stroke="#000000" stroke-width="1" stroke-linecap="butt" stroke-linejoin="miter" stroke-miterlimit="4" transform="translate(71.012685039 179.199240157)" d="M 0 0m 0 28.346456693l 42.519685039 -28.346456693"/><path fill="#ffffff" fill-rule="nonzero" stroke="#000000" stroke-width="1" stroke-linecap="butt" stroke-linejoin="miter" stroke-miterlimit="4" transform="translate(69.012685039 177.199240157)" d="M 0 0m 2 4c -1.103568 0 -2 -0.896432 -2 -2c 0 -1.103568 0.896432 -2 2 -2c 1.103568 0 2 0.896432 2 2c 0 1.103568 -0.896432 2 -2 2Z "/><path fill="#ffffff" fill-rule="nonzero" stroke="#000000" stroke-width="1" stroke-linecap="butt" stroke-linejoin="miter" stroke-miterlimit="4" transform="translate(111.532370079 177.199240157)" d="M 0 0m 2 4c -1.103568 0 -2 -0.896432 -2 -2c 0 -1.103568 0.896432 -2 2 -2c 1.103568 0 2 0.896432 2 2c 0 1.103568 -0.896432 2 -2 2Z "/><path fill="none" stroke="#000000" stroke-width="1" stroke-linecap="butt" stroke-linejoin="miter" stroke-miterlimit="4" transform="translate(71.012685039 207.54569685)" d="M 0 0h 36.843687565"/><path fill="none" stroke="#000000" stroke-width="1" stroke-linecap="butt" stroke-linejoin="miter" stroke-miterlimit="4" stroke-dashoffset="0" stroke-dasharray="" transform="translate(102.187109611 205.419712598)" d="M 0 0l 5.669291339 2.125984252l -5.669291339 2.125984252"/><path fill="none" transform="translate(97.241629921 207.54569685)" d="M 0 0h 16.424v 15.28h -16.424v -15.28Z "/><g transform="translate(97.241629811 207.545696772)"><g transform="matrix(1 0 0 -1 5 10.264)"><use xlink:href="#g7783EC9FB0C16305C83035E8146994B5" x="0" y="0" fill="#000000" fill-rule="nonzero"/><use xlink:href="#g8C50DFC0B8272CD73341C65811BD0E92" x="2.704" y="0" fill="#000000" fill-rule="nonzero"/></g></g><path fill="#ffffff" fill-rule="nonzero" stroke="#000000" stroke-width="1" stroke-linecap="butt" stroke-linejoin="miter" stroke-miterlimit="4" transform="translate(69.012685039 205.54569685)" d="M 0 0m 2 4c -1.103568 0 -2 -0.896432 -2 -2c 0 -1.103568 0.896432 -2 2 -2c 1.103568 0 2 0.896432 2 2c 0 1.103568 -0.896432 2 -2 2Z "/><path fill="#ffffff" fill-rule="nonzero" stroke="#000000" stroke-width="1" stroke-linecap="butt" stroke-linejoin="miter" stroke-miterlimit="4" transform="translate(111.532370079 205.54569685)" d="M 0 0m 2 4c -1.103568 0 -2 -0.896432 -2 -2c 0 -1.103568 0.896432 -2 2 -2c 1.103568 0 2 0.896432 2 2c 0 1.103568 -0.896432 2 -2 2Z "/><path fill="none" stroke="#000000" stroke-width="1" stroke-linecap="butt" stroke-linejoin="miter" stroke-miterlimit="4" transform="translate(28.493 207.54569685)" d="M 0 0h 28.339750557"/><path fill="none" stroke="#000000" stroke-width="1" stroke-linecap="butt" stroke-linejoin="miter" stroke-miterlimit="4" stroke-dashoffset="0" stroke-dasharray="" transform="translate(51.163487564 205.419712598)" d="M 0 0l 5.669291339 2.125984252l -5.669291339 2.125984252"/><path fill="none" transform="translate(44.159201575 207.54569685)" d="M 0 0h 22.2424v 17.6672h -22.2424v -17.6672Z "/><g transform="translate(44.159201496 207.545696787)"><g transform="matrix(1 0 0 -1 5 10.464)"><use xlink:href="#g17B77B0884E370928E37ECB91408B9E1" x="0" y="0" fill="#000000" fill-rule="nonzero"/></g><g transform="matrix(1 0 0 -1 13.608 7.4448)"><use xlink:href="#g826D2F4A0230094444E649B7D92F1243" x="0" y="0" fill="#000000" fill-rule="nonzero"/></g><g transform="matrix(1 0 0 -1 11.752 12.5552)"><use xlink:href="#g9EC2FBF0332AF9453F122699A0413196" x="0" y="0" fill="#000000" fill-rule="nonzero"/></g></g><path fill="none" stroke="#000000" stroke-width="1" stroke-linecap="butt" stroke-linejoin="miter" stroke-miterlimit="4" transform="translate(156.052055118 9.1205)" d="M 0 0m 0 0l 42.519685039 56.692913386"/><path fill="none" stroke="#000000" stroke-width="1" stroke-linecap="butt" stroke-linejoin="miter" stroke-miterlimit="4" transform="translate(156.052055118 9.1205)" d="M 0 0m 0 56.692913386l 42.519685039 -56.692913386"/><path fill="#ffffff" fill-rule="nonzero" stroke="#000000" stroke-width="1" stroke-linecap="butt" stroke-linejoin="miter" stroke-miterlimit="4" transform="translate(154.052055118 7.1205)" d="M 0 0m 2 4c -1.103568 0 -2 -0.896432 -2 -2c 0 -1.103568 0.896432 -2 2 -2c 1.103568 0 2 0.896432 2 2c 0 1.103568 -0.896432 2 -2 2Z "/><path fill="#ffffff" fill-rule="nonzero" stroke="#000000" stroke-width="1" stroke-linecap="butt" stroke-linejoin="miter" stroke-miterlimit="4" transform="translate(196.571740157 7.1205)" d="M 0 0m 2 4c -1.103568 0 -2 -0.896432 -2 -2c 0 -1.103568 0.896432 -2 2 -2c 1.103568 0 2 0.896432 2 2c 0 1.103568 -0.896432 2 -2 2Z "/><path fill="none" stroke="#000000" stroke-width="1" stroke-linecap="butt" stroke-linejoin="miter" stroke-miterlimit="4" transform="translate(156.052055118 65.813413386)" d="M 0 0m 0 0h 36.843687565"/><path fill="none" stroke="#000000" stroke-width="1" stroke-linecap="butt" stroke-linejoin="miter" stroke-miterlimit="4" stroke-dashoffset="0" stroke-dasharray="" transform="translate(187.22647969 63.687429134)" d="M 0 0l 5.669291339 2.125984252l -5.669291339 2.125984252"/><path fill="none" transform="translate(182.281 65.813413386)" d="M 0 0m 0 0h 16.424v 15.28h -16.424v -15.28Z "/><g transform="translate(182.28099989 65.813413307)"><g transform="matrix(1 0 0 -1 5 10.264)"><use xlink:href="#g7783EC9FB0C16305C83035E8146994B5" x="0" y="0" fill="#000000" fill-rule="nonzero"/><use xlink:href="#g8C50DFC0B8272CD73341C65811BD0E92" x="2.704" y="0" fill="#000000" fill-rule="nonzero"/></g></g><path fill="#ffffff" fill-rule="nonzero" stroke="#000000" stroke-width="1" stroke-linecap="butt" stroke-linejoin="miter" stroke-miterlimit="4" transform="translate(154.052055118 63.813413386)" d="M 0 0m 2 4c -1.103568 0 -2 -0.896432 -2 -2c 0 -1.103568 0.896432 -2 2 -2c 1.103568 0 2 0.896432 2 2c 0 1.103568 -0.896432 2 -2 2Z "/><path fill="#ffffff" fill-rule="nonzero" stroke="#000000" stroke-width="1" stroke-linecap="butt" stroke-linejoin="miter" stroke-miterlimit="4" transform="translate(196.571740157 63.813413386)" d="M 0 0m 2 4c -1.103568 0 -2 -0.896432 -2 -2c 0 -1.103568 0.896432 -2 2 -2c 1.103568 0 2 0.896432 2 2c 0 1.103568 -0.896432 2 -2 2Z "/><path fill="none" stroke="#000000" stroke-width="1" stroke-linecap="butt" stroke-linejoin="miter" stroke-miterlimit="4" transform="translate(113.532370079 65.813413386)" d="M 0 0m 0 0h 28.339750557"/><path fill="none" stroke="#000000" stroke-width="1" stroke-linecap="butt" stroke-linejoin="miter" stroke-miterlimit="4" stroke-dashoffset="0" stroke-dasharray="" transform="translate(136.202857643 63.687429134)" d="M 0 0l 5.669291339 2.125984252l -5.669291339 2.125984252"/><path fill="none" transform="translate(129.198571654 65.813413386)" d="M 0 0m 0 0h 22.2424v 17.6672h -22.2424v -17.6672Z "/><g transform="translate(129.198571575 65.813413323)"><g transform="matrix(1 0 0 -1 5 10.464)"><use xlink:href="#g17B77B0884E370928E37ECB91408B9E1" x="0" y="0" fill="#000000" fill-rule="nonzero"/></g><g transform="matrix(1 0 0 -1 13.608 7.4448)"><use xlink:href="#g826D2F4A0230094444E649B7D92F1243" x="0" y="0" fill="#000000" fill-rule="nonzero"/></g><g transform="matrix(1 0 0 -1 11.752 12.5552)"><use xlink:href="#g9EC2FBF0332AF9453F122699A0413196" x="0" y="0" fill="#000000" fill-rule="nonzero"/></g></g><path fill="none" stroke="#000000" stroke-width="1" stroke-linecap="butt" stroke-linejoin="miter" stroke-miterlimit="4" transform="translate(156.052055118 37.466956693)" d="M 0 0m 0 0l 42.519685039 56.692913386"/><path fill="none" stroke="#000000" stroke-width="1" stroke-linecap="butt" stroke-linejoin="miter" stroke-miterlimit="4" transform="translate(156.052055118 37.466956693)" d="M 0 0m 0 56.692913386l 42.519685039 -56.692913386"/><path fill="#ffffff" fill-rule="nonzero" stroke="#000000" stroke-width="1" stroke-linecap="butt" stroke-linejoin="miter" stroke-miterlimit="4" transform="translate(154.052055118 35.466956693)" d="M 0 0m 2 4c -1.103568 0 -2 -0.896432 -2 -2c 0 -1.103568 0.896432 -2 2 -2c 1.103568 0 2 0.896432 2 2c 0 1.103568 -0.896432 2 -2 2Z "/><path fill="#ffffff" fill-rule="nonzero" stroke="#000000" stroke-width="1" stroke-linecap="butt" stroke-linejoin="miter" stroke-miterlimit="4" transform="translate(196.571740157 35.466956693)" d="M 0 0m 2 4c -1.103568 0 -2 -0.896432 -2 -2c 0 -1.103568 0.896432 -2 2 -2c 1.103568 0 2 0.896432 2 2c 0 1.103568 -0.896432 2 -2 2Z "/><path fill="none" stroke="#000000" stroke-width="1" stroke-linecap="butt" stroke-linejoin="miter" stroke-miterlimit="4" transform="translate(156.052055118 94.159870079)" d="M 0 0m 0 0h 36.843687565"/><path fill="none" stroke="#000000" stroke-width="1" stroke-linecap="butt" stroke-linejoin="miter" stroke-miterlimit="4" stroke-dashoffset="0" stroke-dasharray="" transform="translate(187.22647969 92.033885827)" d="M 0 0m 0 0l 5.669291339 2.125984252l -5.669291339 2.125984252"/><path fill="none" transform="translate(182.281 94.159870079)" d="M 0 0m 0 0h 16.424v 15.28h -16.424v -15.28Z "/><g transform="translate(182.28099989 94.15987)"><g transform="matrix(1 0 0 -1 5 10.264)"><use xlink:href="#g7783EC9FB0C16305C83035E8146994B5" x="0" y="0" fill="#000000" fill-rule="nonzero"/><use xlink:href="#g8C50DFC0B8272CD73341C65811BD0E92" x="2.704" y="0" fill="#000000" fill-rule="nonzero"/></g></g><path fill="#ffffff" fill-rule="nonzero" stroke="#000000" stroke-width="1" stroke-linecap="butt" stroke-linejoin="miter" stroke-miterlimit="4" transform="translate(154.052055118 92.159870079)" d="M 0 0m 2 4c -1.103568 0 -2 -0.896432 -2 -2c 0 -1.103568 0.896432 -2 2 -2c 1.103568 0 2 0.896432 2 2c 0 1.103568 -0.896432 2 -2 2Z "/><path fill="#ffffff" fill-rule="nonzero" stroke="#000000" stroke-width="1" stroke-linecap="butt" stroke-linejoin="miter" stroke-miterlimit="4" transform="translate(196.571740157 92.159870079)" d="M 0 0m 2 4c -1.103568 0 -2 -0.896432 -2 -2c 0 -1.103568 0.896432 -2 2 -2c 1.103568 0 2 0.896432 2 2c 0 1.103568 -0.896432 2 -2 2Z "/><path fill="none" stroke="#000000" stroke-width="1" stroke-linecap="butt" stroke-linejoin="miter" stroke-miterlimit="4" transform="translate(113.532370079 94.159870079)" d="M 0 0m 0 0h 28.339750557"/><path fill="none" stroke="#000000" stroke-width="1" stroke-linecap="butt" stroke-linejoin="miter" stroke-miterlimit="4" stroke-dashoffset="0" stroke-dasharray="" transform="translate(136.202857643 92.033885827)" d="M 0 0m 0 0l 5.669291339 2.125984252l -5.669291339 2.125984252"/><path fill="none" transform="translate(129.198571654 94.159870079)" d="M 0 0m 0 0h 22.2424v 17.6112h -22.2424v -17.6112Z "/><g transform="translate(129.198571575 94.159869937)"><g transform="matrix(1 0 0 -1 5 10.464)"><use xlink:href="#g17B77B0884E370928E37ECB91408B9E1" x="0" y="0" fill="#000000" fill-rule="nonzero"/></g><g transform="matrix(1 0 0 -1 13.608 7.5008)"><use xlink:href="#gD16162A8E6BC5125899DC596673576EF" x="0" y="0" fill="#000000" fill-rule="nonzero"/></g><g transform="matrix(1 0 0 -1 11.752 12.4992)"><use xlink:href="#g9EC2FBF0332AF9453F122699A0413196" x="0" y="0" fill="#000000" fill-rule="nonzero"/></g></g><path fill="none" stroke="#000000" stroke-width="1" stroke-linecap="butt" stroke-linejoin="miter" stroke-miterlimit="4" transform="translate(156.052055118 122.506326772)" d="M 0 0l 42.519685039 56.692913386"/><path fill="none" stroke="#000000" stroke-width="1" stroke-linecap="butt" stroke-linejoin="miter" stroke-miterlimit="4" transform="translate(156.052055118 122.506326772)" d="M 0 0m 0 56.692913386l 42.519685039 -56.692913386"/><path fill="#ffffff" fill-rule="nonzero" stroke="#000000" stroke-width="1" stroke-linecap="butt" stroke-linejoin="miter" stroke-miterlimit="4" transform="translate(154.052055118 120.506326772)" d="M 0 0m 2 4c -1.103568 0 -2 -0.896432 -2 -2c 0 -1.103568 0.896432 -2 2 -2c 1.103568 0 2 0.896432 2 2c 0 1.103568 -0.896432 2 -2 2Z "/><path fill="#ffffff" fill-rule="nonzero" stroke="#000000" stroke-width="1" stroke-linecap="butt" stroke-linejoin="miter" stroke-miterlimit="4" transform="translate(196.571740157 120.506326772)" d="M 0 0m 2 4c -1.103568 0 -2 -0.896432 -2 -2c 0 -1.103568 0.896432 -2 2 -2c 1.103568 0 2 0.896432 2 2c 0 1.103568 -0.896432 2 -2 2Z "/><path fill="none" stroke="#000000" stroke-width="1" stroke-linecap="butt" stroke-linejoin="miter" stroke-miterlimit="4" transform="translate(156.052055118 179.199240157)" d="M 0 0h 36.843687565"/><path fill="none" stroke="#000000" stroke-width="1" stroke-linecap="butt" stroke-linejoin="miter" stroke-miterlimit="4" stroke-dashoffset="0" stroke-dasharray="" transform="translate(187.22647969 177.073255906)" d="M 0 0l 5.669291339 2.125984252l -5.669291339 2.125984252"/><path fill="none" transform="translate(182.281 179.199240157)" d="M 0 0h 16.424v 15.28h -16.424v -15.28Z "/><g transform="translate(182.28099989 179.199240079)"><g transform="matrix(1 0 0 -1 5 10.264)"><use xlink:href="#g7783EC9FB0C16305C83035E8146994B5" x="0" y="0" fill="#000000" fill-rule="nonzero"/><use xlink:href="#g8C50DFC0B8272CD73341C65811BD0E92" x="2.704" y="0" fill="#000000" fill-rule="nonzero"/></g></g><path fill="#ffffff" fill-rule="nonzero" stroke="#000000" stroke-width="1" stroke-linecap="butt" stroke-linejoin="miter" stroke-miterlimit="4" transform="translate(154.052055118 177.199240157)" d="M 0 0m 2 4c -1.103568 0 -2 -0.896432 -2 -2c 0 -1.103568 0.896432 -2 2 -2c 1.103568 0 2 0.896432 2 2c 0 1.103568 -0.896432 2 -2 2Z "/><path fill="#ffffff" fill-rule="nonzero" stroke="#000000" stroke-width="1" stroke-linecap="butt" stroke-linejoin="miter" stroke-miterlimit="4" transform="translate(196.571740157 177.199240157)" d="M 0 0m 2 4c -1.103568 0 -2 -0.896432 -2 -2c 0 -1.103568 0.896432 -2 2 -2c 1.103568 0 2 0.896432 2 2c 0 1.103568 -0.896432 2 -2 2Z "/><path fill="none" stroke="#000000" stroke-width="1" stroke-linecap="butt" stroke-linejoin="miter" stroke-miterlimit="4" transform="translate(113.532370079 179.199240157)" d="M 0 0h 28.339750557"/><path fill="none" stroke="#000000" stroke-width="1" stroke-linecap="butt" stroke-linejoin="miter" stroke-miterlimit="4" stroke-dashoffset="0" stroke-dasharray="" transform="translate(136.202857643 177.073255906)" d="M 0 0l 5.669291339 2.125984252l -5.669291339 2.125984252"/><path fill="none" transform="translate(129.198571654 179.199240157)" d="M 0 0h 22.2424v 17.6672h -22.2424v -17.6672Z "/><g transform="translate(129.198571575 179.199240094)"><g transform="matrix(1 0 0 -1 5 10.464)"><use xlink:href="#g17B77B0884E370928E37ECB91408B9E1" x="0" y="0" fill="#000000" fill-rule="nonzero"/></g><g transform="matrix(1 0 0 -1 13.608 7.4448)"><use xlink:href="#g826D2F4A0230094444E649B7D92F1243" x="0" y="0" fill="#000000" fill-rule="nonzero"/></g><g transform="matrix(1 0 0 -1 11.752 12.5552)"><use xlink:href="#g9EC2FBF0332AF9453F122699A0413196" x="0" y="0" fill="#000000" fill-rule="nonzero"/></g></g><path fill="none" stroke="#000000" stroke-width="1" stroke-linecap="butt" stroke-linejoin="miter" stroke-miterlimit="4" transform="translate(156.052055118 150.852783465)" d="M 0 0l 42.519685039 56.692913386"/><path fill="none" stroke="#000000" stroke-width="1" stroke-linecap="butt" stroke-linejoin="miter" stroke-miterlimit="4" transform="translate(156.052055118 150.852783465)" d="M 0 0m 0 56.692913386l 42.519685039 -56.692913386"/><path fill="#ffffff" fill-rule="nonzero" stroke="#000000" stroke-width="1" stroke-linecap="butt" stroke-linejoin="miter" stroke-miterlimit="4" transform="translate(154.052055118 148.852783465)" d="M 0 0m 2 4c -1.103568 0 -2 -0.896432 -2 -2c 0 -1.103568 0.896432 -2 2 -2c 1.103568 0 2 0.896432 2 2c 0 1.103568 -0.896432 2 -2 2Z "/><path fill="#ffffff" fill-rule="nonzero" stroke="#000000" stroke-width="1" stroke-linecap="butt" stroke-linejoin="miter" stroke-miterlimit="4" transform="translate(196.571740157 148.852783465)" d="M 0 0m 2 4c -1.103568 0 -2 -0.896432 -2 -2c 0 -1.103568 0.896432 -2 2 -2c 1.103568 0 2 0.896432 2 2c 0 1.103568 -0.896432 2 -2 2Z "/><path fill="none" stroke="#000000" stroke-width="1" stroke-linecap="butt" stroke-linejoin="miter" stroke-miterlimit="4" transform="translate(156.052055118 207.54569685)" d="M 0 0h 36.843687565"/><path fill="none" stroke="#000000" stroke-width="1" stroke-linecap="butt" stroke-linejoin="miter" stroke-miterlimit="4" stroke-dashoffset="0" stroke-dasharray="" transform="translate(187.22647969 205.419712598)" d="M 0 0l 5.669291339 2.125984252l -5.669291339 2.125984252"/><path fill="none" transform="translate(182.281 207.54569685)" d="M 0 0h 16.424v 15.28h -16.424v -15.28Z "/><g transform="translate(182.28099989 207.545696772)"><g transform="matrix(1 0 0 -1 5 10.264)"><use xlink:href="#g7783EC9FB0C16305C83035E8146994B5" x="0" y="0" fill="#000000" fill-rule="nonzero"/><use xlink:href="#g8C50DFC0B8272CD73341C65811BD0E92" x="2.704" y="0" fill="#000000" fill-rule="nonzero"/></g></g><path fill="#ffffff" fill-rule="nonzero" stroke="#000000" stroke-width="1" stroke-linecap="butt" stroke-linejoin="miter" stroke-miterlimit="4" transform="translate(154.052055118 205.54569685)" d="M 0 0m 2 4c -1.103568 0 -2 -0.896432 -2 -2c 0 -1.103568 0.896432 -2 2 -2c 1.103568 0 2 0.896432 2 2c 0 1.103568 -0.896432 2 -2 2Z "/><path fill="#ffffff" fill-rule="nonzero" stroke="#000000" stroke-width="1" stroke-linecap="butt" stroke-linejoin="miter" stroke-miterlimit="4" transform="translate(196.571740157 205.54569685)" d="M 0 0m 2 4c -1.103568 0 -2 -0.896432 -2 -2c 0 -1.103568 0.896432 -2 2 -2c 1.103568 0 2 0.896432 2 2c 0 1.103568 -0.896432 2 -2 2Z "/><path fill="none" stroke="#000000" stroke-width="1" stroke-linecap="butt" stroke-linejoin="miter" stroke-miterlimit="4" transform="translate(113.532370079 207.54569685)" d="M 0 0h 28.339750557"/><path fill="none" stroke="#000000" stroke-width="1" stroke-linecap="butt" stroke-linejoin="miter" stroke-miterlimit="4" stroke-dashoffset="0" stroke-dasharray="" transform="translate(136.202857643 205.419712598)" d="M 0 0l 5.669291339 2.125984252l -5.669291339 2.125984252"/><path fill="none" transform="translate(129.198571654 207.54569685)" d="M 0 0h 22.2424v 17.6112h -22.2424v -17.6112Z "/><g transform="translate(129.198571575 207.545696709)"><g transform="matrix(1 0 0 -1 5 10.464)"><use xlink:href="#g17B77B0884E370928E37ECB91408B9E1" x="0" y="0" fill="#000000" fill-rule="nonzero"/></g><g transform="matrix(1 0 0 -1 13.608 7.5008)"><use xlink:href="#gD16162A8E6BC5125899DC596673576EF" x="0" y="0" fill="#000000" fill-rule="nonzero"/></g><g transform="matrix(1 0 0 -1 11.752 12.4992)"><use xlink:href="#g9EC2FBF0332AF9453F122699A0413196" x="0" y="0" fill="#000000" fill-rule="nonzero"/></g></g><path fill="none" stroke="#000000" stroke-width="1" stroke-linecap="butt" stroke-linejoin="miter" stroke-miterlimit="4" transform="translate(241.091425197 9.1205)" d="M 0 0m 0 0l 42.519685039 113.385826772"/><path fill="none" stroke="#000000" stroke-width="1" stroke-linecap="butt" stroke-linejoin="miter" stroke-miterlimit="4" transform="translate(241.091425197 9.1205)" d="M 0 0m 0 113.385826772l 42.519685039 -113.385826772"/><path fill="#ffffff" fill-rule="nonzero" stroke="#000000" stroke-width="1" stroke-linecap="butt" stroke-linejoin="miter" stroke-miterlimit="4" transform="translate(239.091425197 7.1205)" d="M 0 0m 2 4c -1.103568 0 -2 -0.896432 -2 -2c 0 -1.103568 0.896432 -2 2 -2c 1.103568 0 2 0.896432 2 2c 0 1.103568 -0.896432 2 -2 2Z "/><path fill="#ffffff" fill-rule="nonzero" stroke="#000000" stroke-width="1" stroke-linecap="butt" stroke-linejoin="miter" stroke-miterlimit="4" transform="translate(281.611110236 7.1205)" d="M 0 0m 2 4c -1.103568 0 -2 -0.896432 -2 -2c 0 -1.103568 0.896432 -2 2 -2c 1.103568 0 2 0.896432 2 2c 0 1.103568 -0.896432 2 -2 2Z "/><path fill="none" stroke="#000000" stroke-width="1" stroke-linecap="butt" stroke-linejoin="miter" stroke-miterlimit="4" transform="translate(241.091425197 122.506326772)" d="M 0 0h 36.843687565"/><path fill="none" stroke="#000000" stroke-width="1" stroke-linecap="butt" stroke-linejoin="miter" stroke-miterlimit="4" stroke-dashoffset="0" stroke-dasharray="" transform="translate(272.265849769 120.38034252)" d="M 0 0l 5.669291339 2.125984252l -5.669291339 2.125984252"/><path fill="none" transform="translate(267.320370079 122.506326772)" d="M 0 0h 16.424v 15.28h -16.424v -15.28Z "/><g transform="translate(267.320369969 122.506326693)"><g transform="matrix(1 0 0 -1 5 10.264)"><use xlink:href="#g7783EC9FB0C16305C83035E8146994B5" x="0" y="0" fill="#000000" fill-rule="nonzero"/><use xlink:href="#g8C50DFC0B8272CD73341C65811BD0E92" x="2.704" y="0" fill="#000000" fill-rule="nonzero"/></g></g><path fill="#ffffff" fill-rule="nonzero" stroke="#000000" stroke-width="1" stroke-linecap="butt" stroke-linejoin="miter" stroke-miterlimit="4" transform="translate(239.091425197 120.506326772)" d="M 0 0m 2 4c -1.103568 0 -2 -0.896432 -2 -2c 0 -1.103568 0.896432 -2 2 -2c 1.103568 0 2 0.896432 2 2c 0 1.103568 -0.896432 2 -2 2Z "/><path fill="#ffffff" fill-rule="nonzero" stroke="#000000" stroke-width="1" stroke-linecap="butt" stroke-linejoin="miter" stroke-miterlimit="4" transform="translate(281.611110236 120.506326772)" d="M 0 0m 2 4c -1.103568 0 -2 -0.896432 -2 -2c 0 -1.103568 0.896432 -2 2 -2c 1.103568 0 2 0.896432 2 2c 0 1.103568 -0.896432 2 -2 2Z "/><path fill="none" stroke="#000000" stroke-width="1" stroke-linecap="butt" stroke-linejoin="miter" stroke-miterlimit="4" transform="translate(198.571740157 122.506326772)" d="M 0 0h 28.339750557"/><path fill="none" stroke="#000000" stroke-width="1" stroke-linecap="butt" stroke-linejoin="miter" stroke-miterlimit="4" stroke-dashoffset="0" stroke-dasharray="" transform="translate(221.242227722 120.38034252)" d="M 0 0l 5.669291339 2.125984252l -5.669291339 2.125984252"/><path fill="none" transform="translate(214.237941732 122.506326772)" d="M 0 0h 22.2424v 17.6672h -22.2424v -17.6672Z "/><g transform="translate(214.237941654 122.506326709)"><g transform="matrix(1 0 0 -1 5 10.464)"><use xlink:href="#g17B77B0884E370928E37ECB91408B9E1" x="0" y="0" fill="#000000" fill-rule="nonzero"/></g><g transform="matrix(1 0 0 -1 13.608 7.4448)"><use xlink:href="#g826D2F4A0230094444E649B7D92F1243" x="0" y="0" fill="#000000" fill-rule="nonzero"/></g><g transform="matrix(1 0 0 -1 11.752 12.5552)"><use xlink:href="#g9EC2FBF0332AF9453F122699A0413196" x="0" y="0" fill="#000000" fill-rule="nonzero"/></g></g><path fill="none" stroke="#000000" stroke-width="1" stroke-linecap="butt" stroke-linejoin="miter" stroke-miterlimit="4" transform="translate(241.091425197 37.466956693)" d="M 0 0m 0 0l 42.519685039 113.385826772"/><path fill="none" stroke="#000000" stroke-width="1" stroke-linecap="butt" stroke-linejoin="miter" stroke-miterlimit="4" transform="translate(241.091425197 37.466956693)" d="M 0 0m 0 113.385826772l 42.519685039 -113.385826772"/><path fill="#ffffff" fill-rule="nonzero" stroke="#000000" stroke-width="1" stroke-linecap="butt" stroke-linejoin="miter" stroke-miterlimit="4" transform="translate(239.091425197 35.466956693)" d="M 0 0m 2 4c -1.103568 0 -2 -0.896432 -2 -2c 0 -1.103568 0.896432 -2 2 -2c 1.103568 0 2 0.896432 2 2c 0 1.103568 -0.896432 2 -2 2Z "/><path fill="#ffffff" fill-rule="nonzero" stroke="#000000" stroke-width="1" stroke-linecap="butt" stroke-linejoin="miter" stroke-miterlimit="4" transform="translate(281.611110236 35.466956693)" d="M 0 0m 2 4c -1.103568 0 -2 -0.896432 -2 -2c 0 -1.103568 0.896432 -2 2 -2c 1.103568 0 2 0.896432 2 2c 0 1.103568 -0.896432 2 -2 2Z "/><path fill="none" stroke="#000000" stroke-width="1" stroke-linecap="butt" stroke-linejoin="miter" stroke-miterlimit="4" transform="translate(241.091425197 150.852783465)" d="M 0 0h 36.843687565"/><path fill="none" stroke="#000000" stroke-width="1" stroke-linecap="butt" stroke-linejoin="miter" stroke-miterlimit="4" stroke-dashoffset="0" stroke-dasharray="" transform="translate(272.265849769 148.726799213)" d="M 0 0l 5.669291339 2.125984252l -5.669291339 2.125984252"/><path fill="none" transform="translate(267.320370079 150.852783465)" d="M 0 0h 16.424v 15.28h -16.424v -15.28Z "/><g transform="translate(267.320369969 150.852783386)"><g transform="matrix(1 0 0 -1 5 10.264)"><use xlink:href="#g7783EC9FB0C16305C83035E8146994B5" x="0" y="0" fill="#000000" fill-rule="nonzero"/><use xlink:href="#g8C50DFC0B8272CD73341C65811BD0E92" x="2.704" y="0" fill="#000000" fill-rule="nonzero"/></g></g><path fill="#ffffff" fill-rule="nonzero" stroke="#000000" stroke-width="1" stroke-linecap="butt" stroke-linejoin="miter" stroke-miterlimit="4" transform="translate(239.091425197 148.852783465)" d="M 0 0m 2 4c -1.103568 0 -2 -0.896432 -2 -2c 0 -1.103568 0.896432 -2 2 -2c 1.103568 0 2 0.896432 2 2c 0 1.103568 -0.896432 2 -2 2Z "/><path fill="#ffffff" fill-rule="nonzero" stroke="#000000" stroke-width="1" stroke-linecap="butt" stroke-linejoin="miter" stroke-miterlimit="4" transform="translate(281.611110236 148.852783465)" d="M 0 0m 2 4c -1.103568 0 -2 -0.896432 -2 -2c 0 -1.103568 0.896432 -2 2 -2c 1.103568 0 2 0.896432 2 2c 0 1.103568 -0.896432 2 -2 2Z "/><path fill="none" stroke="#000000" stroke-width="1" stroke-linecap="butt" stroke-linejoin="miter" stroke-miterlimit="4" transform="translate(198.571740157 150.852783465)" d="M 0 0h 28.339750557"/><path fill="none" stroke="#000000" stroke-width="1" stroke-linecap="butt" stroke-linejoin="miter" stroke-miterlimit="4" stroke-dashoffset="0" stroke-dasharray="" transform="translate(221.242227722 148.726799213)" d="M 0 0l 5.669291339 2.125984252l -5.669291339 2.125984252"/><path fill="none" transform="translate(214.237941732 150.852783465)" d="M 0 0h 22.2424v 17.6112h -22.2424v -17.6112Z "/><g transform="translate(214.237941654 150.852783323)"><g transform="matrix(1 0 0 -1 5 10.464)"><use xlink:href="#g17B77B0884E370928E37ECB91408B9E1" x="0" y="0" fill="#000000" fill-rule="nonzero"/></g><g transform="matrix(1 0 0 -1 13.608 7.5008)"><use xlink:href="#gB857CD5703F41BDF509E4EE0489893D" x="0" y="0" fill="#000000" fill-rule="nonzero"/></g><g transform="matrix(1 0 0 -1 11.752 12.4992)"><use xlink:href="#g9EC2FBF0332AF9453F122699A0413196" x="0" y="0" fill="#000000" fill-rule="nonzero"/></g></g><path fill="none" stroke="#000000" stroke-width="1" stroke-linecap="butt" stroke-linejoin="miter" stroke-miterlimit="4" transform="translate(241.091425197 65.813413386)" d="M 0 0m 0 0l 42.519685039 113.385826772"/><path fill="none" stroke="#000000" stroke-width="1" stroke-linecap="butt" stroke-linejoin="miter" stroke-miterlimit="4" transform="translate(241.091425197 65.813413386)" d="M 0 0m 0 113.385826772l 42.519685039 -113.385826772"/><path fill="#ffffff" fill-rule="nonzero" stroke="#000000" stroke-width="1" stroke-linecap="butt" stroke-linejoin="miter" stroke-miterlimit="4" transform="translate(239.091425197 63.813413386)" d="M 0 0m 2 4c -1.103568 0 -2 -0.896432 -2 -2c 0 -1.103568 0.896432 -2 2 -2c 1.103568 0 2 0.896432 2 2c 0 1.103568 -0.896432 2 -2 2Z "/><path fill="#ffffff" fill-rule="nonzero" stroke="#000000" stroke-width="1" stroke-linecap="butt" stroke-linejoin="miter" stroke-miterlimit="4" transform="translate(281.611110236 63.813413386)" d="M 0 0m 2 4c -1.103568 0 -2 -0.896432 -2 -2c 0 -1.103568 0.896432 -2 2 -2c 1.103568 0 2 0.896432 2 2c 0 1.103568 -0.896432 2 -2 2Z "/><path fill="none" stroke="#000000" stroke-width="1" stroke-linecap="butt" stroke-linejoin="miter" stroke-miterlimit="4" transform="translate(241.091425197 179.199240157)" d="M 0 0h 36.843687565"/><path fill="none" stroke="#000000" stroke-width="1" stroke-linecap="butt" stroke-linejoin="miter" stroke-miterlimit="4" stroke-dashoffset="0" stroke-dasharray="" transform="translate(272.265849769 177.073255906)" d="M 0 0l 5.669291339 2.125984252l -5.669291339 2.125984252"/><path fill="none" transform="translate(267.320370079 179.199240157)" d="M 0 0h 16.424v 15.28h -16.424v -15.28Z "/><g transform="translate(267.320369969 179.199240079)"><g transform="matrix(1 0 0 -1 5 10.264)"><use xlink:href="#g7783EC9FB0C16305C83035E8146994B5" x="0" y="0" fill="#000000" fill-rule="nonzero"/><use xlink:href="#g8C50DFC0B8272CD73341C65811BD0E92" x="2.704" y="0" fill="#000000" fill-rule="nonzero"/></g></g><path fill="#ffffff" fill-rule="nonzero" stroke="#000000" stroke-width="1" stroke-linecap="butt" stroke-linejoin="miter" stroke-miterlimit="4" transform="translate(239.091425197 177.199240157)" d="M 0 0m 2 4c -1.103568 0 -2 -0.896432 -2 -2c 0 -1.103568 0.896432 -2 2 -2c 1.103568 0 2 0.896432 2 2c 0 1.103568 -0.896432 2 -2 2Z "/><path fill="#ffffff" fill-rule="nonzero" stroke="#000000" stroke-width="1" stroke-linecap="butt" stroke-linejoin="miter" stroke-miterlimit="4" transform="translate(281.611110236 177.199240157)" d="M 0 0m 2 4c -1.103568 0 -2 -0.896432 -2 -2c 0 -1.103568 0.896432 -2 2 -2c 1.103568 0 2 0.896432 2 2c 0 1.103568 -0.896432 2 -2 2Z "/><path fill="none" stroke="#000000" stroke-width="1" stroke-linecap="butt" stroke-linejoin="miter" stroke-miterlimit="4" transform="translate(198.571740157 179.199240157)" d="M 0 0h 28.339750557"/><path fill="none" stroke="#000000" stroke-width="1" stroke-linecap="butt" stroke-linejoin="miter" stroke-miterlimit="4" stroke-dashoffset="0" stroke-dasharray="" transform="translate(221.242227722 177.073255906)" d="M 0 0l 5.669291339 2.125984252l -5.669291339 2.125984252"/><path fill="none" transform="translate(214.237941732 179.199240157)" d="M 0 0h 22.2424v 17.6112h -22.2424v -17.6112Z "/><g transform="translate(214.237941654 179.199240016)"><g transform="matrix(1 0 0 -1 5 10.464)"><use xlink:href="#g17B77B0884E370928E37ECB91408B9E1" x="0" y="0" fill="#000000" fill-rule="nonzero"/></g><g transform="matrix(1 0 0 -1 13.608 7.5008)"><use xlink:href="#gD16162A8E6BC5125899DC596673576EF" x="0" y="0" fill="#000000" fill-rule="nonzero"/></g><g transform="matrix(1 0 0 -1 11.752 12.4992)"><use xlink:href="#g9EC2FBF0332AF9453F122699A0413196" x="0" y="0" fill="#000000" fill-rule="nonzero"/></g></g><path fill="none" stroke="#000000" stroke-width="1" stroke-linecap="butt" stroke-linejoin="miter" stroke-miterlimit="4" transform="translate(241.091425197 94.159870079)" d="M 0 0m 0 0l 42.519685039 113.385826772"/><path fill="none" stroke="#000000" stroke-width="1" stroke-linecap="butt" stroke-linejoin="miter" stroke-miterlimit="4" transform="translate(241.091425197 94.159870079)" d="M 0 0m 0 113.385826772l 42.519685039 -113.385826772"/><path fill="#ffffff" fill-rule="nonzero" stroke="#000000" stroke-width="1" stroke-linecap="butt" stroke-linejoin="miter" stroke-miterlimit="4" transform="translate(239.091425197 92.159870079)" d="M 0 0m 2 4c -1.103568 0 -2 -0.896432 -2 -2c 0 -1.103568 0.896432 -2 2 -2c 1.103568 0 2 0.896432 2 2c 0 1.103568 -0.896432 2 -2 2Z "/><path fill="#ffffff" fill-rule="nonzero" stroke="#000000" stroke-width="1" stroke-linecap="butt" stroke-linejoin="miter" stroke-miterlimit="4" transform="translate(281.611110236 92.159870079)" d="M 0 0m 2 4c -1.103568 0 -2 -0.896432 -2 -2c 0 -1.103568 0.896432 -2 2 -2c 1.103568 0 2 0.896432 2 2c 0 1.103568 -0.896432 2 -2 2Z "/><path fill="none" stroke="#000000" stroke-width="1" stroke-linecap="butt" stroke-linejoin="miter" stroke-miterlimit="4" transform="translate(241.091425197 207.54569685)" d="M 0 0h 36.843687565"/><path fill="none" stroke="#000000" stroke-width="1" stroke-linecap="butt" stroke-linejoin="miter" stroke-miterlimit="4" stroke-dashoffset="0" stroke-dasharray="" transform="translate(272.265849769 205.419712598)" d="M 0 0l 5.669291339 2.125984252l -5.669291339 2.125984252"/><path fill="none" transform="translate(267.320370079 207.54569685)" d="M 0 0h 16.424v 15.28h -16.424v -15.28Z "/><g transform="translate(267.320369969 207.545696772)"><g transform="matrix(1 0 0 -1 5 10.264)"><use xlink:href="#g7783EC9FB0C16305C83035E8146994B5" x="0" y="0" fill="#000000" fill-rule="nonzero"/><use xlink:href="#g8C50DFC0B8272CD73341C65811BD0E92" x="2.704" y="0" fill="#000000" fill-rule="nonzero"/></g></g><path fill="#ffffff" fill-rule="nonzero" stroke="#000000" stroke-width="1" stroke-linecap="butt" stroke-linejoin="miter" stroke-miterlimit="4" transform="translate(239.091425197 205.54569685)" d="M 0 0m 2 4c -1.103568 0 -2 -0.896432 -2 -2c 0 -1.103568 0.896432 -2 2 -2c 1.103568 0 2 0.896432 2 2c 0 1.103568 -0.896432 2 -2 2Z "/><path fill="#ffffff" fill-rule="nonzero" stroke="#000000" stroke-width="1" stroke-linecap="butt" stroke-linejoin="miter" stroke-miterlimit="4" transform="translate(281.611110236 205.54569685)" d="M 0 0m 2 4c -1.103568 0 -2 -0.896432 -2 -2c 0 -1.103568 0.896432 -2 2 -2c 1.103568 0 2 0.896432 2 2c 0 1.103568 -0.896432 2 -2 2Z "/><path fill="none" stroke="#000000" stroke-width="1" stroke-linecap="butt" stroke-linejoin="miter" stroke-miterlimit="4" transform="translate(198.571740157 207.54569685)" d="M 0 0h 28.339750557"/><path fill="none" stroke="#000000" stroke-width="1" stroke-linecap="butt" stroke-linejoin="miter" stroke-miterlimit="4" stroke-dashoffset="0" stroke-dasharray="" transform="translate(221.242227722 205.419712598)" d="M 0 0l 5.669291339 2.125984252l -5.669291339 2.125984252"/><path fill="none" transform="translate(214.237941732 207.54569685)" d="M 0 0h 22.2424v 17.6672h -22.2424v -17.6672Z "/><g transform="translate(214.237941654 207.545696787)"><g transform="matrix(1 0 0 -1 5 10.464)"><use xlink:href="#g17B77B0884E370928E37ECB91408B9E1" x="0" y="0" fill="#000000" fill-rule="nonzero"/></g><g transform="matrix(1 0 0 -1 13.608 7.4448)"><use xlink:href="#g8620D4FBE966A3B5BE9D3ED2CA359DA3" x="0" y="0" fill="#000000" fill-rule="nonzero"/></g><g transform="matrix(1 0 0 -1 11.752 12.5552)"><use xlink:href="#g9EC2FBF0332AF9453F122699A0413196" x="0" y="0" fill="#000000" fill-rule="nonzero"/></g></g></g><defs><symbol id="gA4AC33BF76001B15D203F6668E9483BD" overflow="visible"><path d="M 0 0m 5.797 4.103c 0 0.506 -0.495 0.759 -1.045 0.759c -0.473 0 -0.847 -0.253 -1.133 -0.759c -0.231 0.506 -0.616 0.759 -1.177 0.759c -0.539 0 -0.979 -0.253 -1.331 -0.748c -0.297 -0.429 -0.451 -0.748 -0.451 -0.957c 0 -0.099 0.055 -0.154 0.165 -0.154c 0.099 0 0.165 0.055 0.187 0.154c 0.209 0.638 0.671 1.386 1.408 1.386c 0.363 0 0.539 -0.231 0.539 -0.682c 0 -0.231 -0.198 -1.089 -0.583 -2.563c -0.187 -0.737 -0.517 -1.1 -0.99 -1.1c -0.154 0 -0.297 0.033 -0.418 0.088c 0.286 0.11 0.429 0.308 0.429 0.594c 0 0.286 -0.143 0.429 -0.44 0.429c -0.363 0 -0.638 -0.308 -0.638 -0.671c 0 -0.506 0.517 -0.759 1.056 -0.759c 0.462 0 0.836 0.253 1.133 0.759c 0.209 -0.506 0.605 -0.759 1.177 -0.759c 0.528 0 0.968 0.253 1.32 0.748c 0.297 0.429 0.451 0.748 0.451 0.957c 0 0.099 -0.055 0.154 -0.165 0.154c -0.099 0 -0.154 -0.055 -0.187 -0.154c -0.187 -0.627 -0.682 -1.386 -1.397 -1.386c -0.363 0 -0.55 0.22 -0.55 0.671c 0 0.143 0.055 0.451 0.176 0.946l 0.374 1.485c 0.209 0.825 0.55 1.243 1.034 1.243c 0.154 0 0.297 -0.033 0.418 -0.088c -0.297 -0.099 -0.44 -0.297 -0.44 -0.594c 0 -0.286 0.154 -0.429 0.451 -0.429c 0.352 0 0.627 0.319 0.627 0.671Z "/></symbol><symbol id="gCBFDB4FAA60E8030E7B751E03D6CAAA6" overflow="visible"><path d="M 0 0m 3.498 -2.728c 0.099 0 0.154 0.055 0.154 0.154c 0 0.033 -0.022 0.077 -0.055 0.121c -0.572 0.44 -1.034 1.166 -1.375 2.167c -0.297 0.869 -0.451 1.727 -0.451 2.574v 0.924c 0 0.847 0.154 1.705 0.451 2.574c 0.341 1.001 0.803 1.727 1.375 2.167c 0.033 0.033 0.055 0.077 0.055 0.121c 0 0.099 -0.055 0.154 -0.154 0.154c -0.011 0 -0.044 -0.011 -0.077 -0.033c -0.66 -0.506 -1.21 -1.254 -1.661 -2.255c -0.429 -0.957 -0.649 -1.859 -0.649 -2.728v -0.924c 0 -0.869 0.22 -1.771 0.649 -2.728c 0.451 -1.001 1.001 -1.749 1.661 -2.255c 0.033 -0.022 0.066 -0.033 0.077 -0.033Z "/></symbol><symbol id="g18E9A2F0F5286FD67B2F2437F78BB061" overflow="visible"><path d="M 0 0m 2.739 -0.242c 1.551 0 2.321 1.254 2.321 3.762c 0 1.683 -0.352 2.805 -1.045 3.355c -0.385 0.297 -0.814 0.451 -1.265 0.451c -1.551 0 -2.321 -1.265 -2.321 -3.806c 0 -2.024 0.539 -3.762 2.31 -3.762Z m 1.232 6.006c 0.077 -0.385 0.11 -1.089 0.11 -2.112c 0 -1.012 -0.044 -1.76 -0.121 -2.244c -0.143 -0.88 -0.55 -1.32 -1.221 -1.32c -0.253 0 -0.506 0.099 -0.737 0.286c -0.297 0.253 -0.473 0.77 -0.55 1.562c -0.033 0.275 -0.044 0.847 -0.044 1.716c 0 0.957 0.033 1.628 0.088 1.991c 0.099 0.605 0.297 0.99 0.605 1.155c 0.242 0.132 0.451 0.198 0.638 0.198c 0.715 0 1.111 -0.583 1.232 -1.232Z "/></symbol><symbol id="g11C1096A524ED08942C2BB5E0564A17C" overflow="visible"><path d="M 0 0m 0.858 -2.695c 0.66 0.506 1.21 1.254 1.661 2.255c 0.429 0.957 0.649 1.859 0.649 2.728v 0.924c 0 0.869 -0.22 1.771 -0.649 2.728c -0.451 1.001 -1.001 1.749 -1.661 2.255c -0.033 0.022 -0.066 0.033 -0.077 0.033c -0.099 0 -0.154 -0.055 -0.154 -0.154c 0 -0.044 0.022 -0.088 0.055 -0.121c 0.572 -0.44 1.034 -1.166 1.375 -2.167c 0.297 -0.869 0.451 -1.727 0.451 -2.574v -0.924c 0 -0.847 -0.154 -1.705 -0.451 -2.574c -0.341 -1.001 -0.803 -1.727 -1.375 -2.167c -0.033 -0.044 -0.055 -0.088 -0.055 -0.121c 0 -0.099 0.055 -0.154 0.154 -0.154c 0.011 0 0.044 0.011 0.077 0.033Z "/></symbol><symbol id="g481AE727E6F914D5199E83A214575C36" overflow="visible"><path d="M 0 0m 9.174 7.513c -0.187 0 -0.836 -0.033 -1.023 -0.033c -0.22 0 -0.99 0.033 -1.21 0.033c -0.165 0 -0.253 -0.088 -0.253 -0.264c 0 -0.099 0.055 -0.154 0.176 -0.165c 0.264 -0.033 0.396 -0.121 0.396 -0.286c 0 -0.099 -0.066 -0.22 -0.198 -0.363l -1.716 -1.848c -0.319 0.748 -0.627 1.485 -0.946 2.233c 0.011 0.022 0.022 0.044 0.055 0.066c 0.099 0.11 0.286 0.176 0.55 0.198c 0.176 0.022 0.264 0.11 0.264 0.253c 0 0.121 -0.066 0.176 -0.209 0.176c -0.264 0 -1.111 -0.033 -1.375 -0.033c -0.231 0 -0.99 0.033 -1.221 0.033c -0.165 0 -0.242 -0.088 -0.242 -0.264c 0 -0.11 0.099 -0.165 0.297 -0.165c 0.495 0 0.649 0 0.781 -0.319l 1.276 -3.003l -2.288 -2.453c -0.033 -0.033 -0.077 -0.077 -0.132 -0.11c -0.451 -0.473 -0.968 -0.737 -1.573 -0.77c -0.187 -0.011 -0.286 -0.11 -0.286 -0.275c 0.033 -0.099 0.044 -0.154 0.187 -0.154c 0.187 0 0.836 0.033 1.023 0.033c 0.231 0 0.99 -0.033 1.221 -0.033c 0.165 0 0.242 0.088 0.242 0.264c 0 0.099 -0.055 0.154 -0.176 0.165c -0.264 0.022 -0.396 0.121 -0.396 0.286c 0 0.11 0.099 0.264 0.286 0.462c 0.682 0.726 1.375 1.452 2.046 2.189c 0.374 -0.891 0.759 -1.771 1.122 -2.673c -0.011 -0.022 -0.022 -0.044 -0.055 -0.077c -0.099 -0.099 -0.275 -0.154 -0.539 -0.187c -0.165 -0.022 -0.253 -0.11 -0.253 -0.253c 0 -0.121 0.066 -0.176 0.209 -0.176l 1.375 0.033c 0.231 0 1.001 -0.033 1.199 -0.033c 0.165 0 0.253 0.088 0.253 0.253c 0 0.11 -0.077 0.165 -0.242 0.176c -0.341 0 -0.561 0.011 -0.638 0.055c -0.077 0.044 -0.165 0.176 -0.253 0.396l -1.397 3.333c 0.748 0.792 1.309 1.386 1.672 1.793c 0.264 0.275 0.44 0.462 0.539 0.539c 0.407 0.341 0.858 0.517 1.353 0.539c 0.231 0.011 0.286 0.066 0.286 0.275c -0.033 0.099 -0.044 0.154 -0.187 0.154Z "/></symbol><symbol id="g5B440C03A6991C2AE1CF687F6CF909A" overflow="visible"><path d="M 0 0m 3.883 7.447c -0.099 0 -0.187 -0.055 -0.253 -0.154l -3.322 -5.104v -0.396h 2.871v -0.902c 0 -0.198 -0.044 -0.33 -0.121 -0.385c -0.077 -0.055 -0.286 -0.077 -0.649 -0.077h -0.275v -0.429c 0.319 0.022 0.825 0.033 1.507 0.033c 0.682 0 1.188 -0.011 1.507 -0.033v 0.429h -0.275c -0.363 0 -0.572 0.022 -0.649 0.077c -0.077 0.055 -0.121 0.187 -0.121 0.385v 0.902h 1.078v 0.429h -1.078v 5.038c 0 0.11 -0.077 0.187 -0.22 0.187Z m -0.638 -1.364v -3.861h -2.508Z "/></symbol><symbol id="g3E2A4E29F5F78B7482203F9341039E72" overflow="visible"><path d="M 0 0m 2.959 7.326c -0.451 -0.462 -1.111 -0.693 -1.98 -0.693v -0.429c 0.572 0 1.045 0.088 1.408 0.264v -5.566c 0 -0.198 -0.044 -0.33 -0.143 -0.385c -0.099 -0.055 -0.374 -0.088 -0.814 -0.088h -0.385v -0.429c 0.275 0.022 0.869 0.033 1.782 0.033c 0.913 0 1.507 -0.011 1.782 -0.033v 0.429h -0.385c -0.451 0 -0.726 0.033 -0.814 0.088c -0.088 0.055 -0.143 0.187 -0.143 0.385v 6.094c 0 0.264 -0.022 0.33 -0.308 0.33Z "/></symbol><symbol id="g5037E03A0CBEB30198DBAC9F97CDF04F" overflow="visible"><path d="M 0 0m 2.607 7.326c -0.561 0 -1.034 -0.198 -1.441 -0.594c -0.407 -0.396 -0.616 -0.858 -0.616 -1.419c 0 -0.374 0.275 -0.649 0.616 -0.649c 0.33 0 0.605 0.286 0.605 0.616c 0 0.363 -0.264 0.616 -0.616 0.616c -0.033 0 -0.055 0 -0.077 -0.011c 0.209 0.539 0.693 1.012 1.386 1.012c 0.902 0 1.408 -0.781 1.408 -1.727c 0 -0.737 -0.374 -1.529 -1.122 -2.365l -2.068 -2.332c -0.143 -0.165 -0.132 -0.154 -0.132 -0.473h 4.081l 0.319 1.98h -0.363c -0.088 -0.561 -0.165 -0.88 -0.231 -0.979c -0.055 -0.055 -0.385 -0.077 -0.99 -0.077h -1.837l 1.067 1.045c 0.748 0.704 1.694 1.463 2.013 2.046c 0.22 0.385 0.33 0.77 0.33 1.155c 0 1.298 -1.012 2.156 -2.332 2.156Z "/></symbol><symbol id="gBD401770F8867B490949D5AE1AB3F82" overflow="visible"><path d="M 0 0m 4.213 5.544c 0.363 0 0.539 0.187 0.539 0.561c 0 0.792 -0.594 1.221 -1.408 1.221c -0.913 0 -1.639 -0.429 -2.178 -1.298c -0.473 -0.748 -0.704 -1.595 -0.704 -2.552c 0 -1.397 0.253 -2.376 0.77 -2.959c 0.44 -0.506 0.946 -0.759 1.529 -0.759c 0.671 0 1.221 0.253 1.65 0.759c 0.407 0.484 0.616 1.067 0.616 1.738c 0 0.671 -0.198 1.243 -0.594 1.716c -0.418 0.506 -0.957 0.77 -1.606 0.77c -0.572 0 -1.012 -0.319 -1.309 -0.935v 0.066c 0 1.243 0.308 2.299 0.968 2.783c 0.286 0.209 0.583 0.308 0.88 0.308c 0.396 0 0.682 -0.11 0.869 -0.341c -0.374 0 -0.561 -0.209 -0.561 -0.539c 0 -0.308 0.231 -0.539 0.539 -0.539Z m -0.429 -1.804c 0.121 -0.253 0.187 -0.748 0.187 -1.474c 0 -0.715 -0.055 -1.188 -0.176 -1.43c -0.22 -0.451 -0.561 -0.682 -1.034 -0.682c -0.319 0 -0.561 0.11 -0.737 0.33c -0.143 0.176 -0.242 0.33 -0.286 0.451c -0.132 0.341 -0.198 0.858 -0.198 1.562c 0 0.308 0.044 0.605 0.121 0.891c 0.143 0.517 0.55 1.001 1.155 1.001c 0.429 0 0.759 -0.22 0.968 -0.649Z "/></symbol><symbol id="gC63E28D2FF745BC8AEDEB058F758CC95" overflow="visible"><path d="M 0 0m 3.333 3.883c 0.726 0.275 1.408 0.968 1.408 1.903c 0 0.473 -0.231 0.858 -0.682 1.155c -0.396 0.253 -0.847 0.385 -1.353 0.385c -0.495 0 -0.924 -0.132 -1.309 -0.385c -0.429 -0.286 -0.649 -0.66 -0.649 -1.133c 0 -0.363 0.242 -0.616 0.594 -0.616c 0.352 0 0.594 0.253 0.594 0.605c 0 0.363 -0.209 0.561 -0.627 0.583c 0.286 0.385 0.737 0.583 1.353 0.583c 0.66 0 0.99 -0.385 0.99 -1.166c 0 -0.462 -0.088 -0.847 -0.253 -1.166c -0.297 -0.528 -0.704 -0.627 -1.386 -0.627c -0.132 -0.022 -0.198 -0.077 -0.198 -0.176c 0 -0.165 0.077 -0.165 0.297 -0.165h 0.473c 0.825 0 1.243 -0.583 1.243 -1.76c 0 -0.935 -0.341 -1.749 -1.177 -1.749c -0.715 0 -1.243 0.242 -1.562 0.726c 0.385 -0.011 0.671 0.275 0.671 0.649c 0 0.374 -0.275 0.649 -0.649 0.649c -0.429 0 -0.649 -0.22 -0.649 -0.671c 0 -0.539 0.242 -0.968 0.726 -1.309c 0.429 -0.297 0.935 -0.44 1.496 -0.44c 0.627 0 1.166 0.209 1.639 0.616c 0.473 0.407 0.704 0.913 0.704 1.529c 0 1.034 -0.814 1.749 -1.694 1.98Z "/></symbol><symbol id="gE3AFFB6D3A6969089B1BA192752CE6D1" overflow="visible"><path d="M 0 0m 1.298 3.465c 0.055 0 0.121 0.044 0.176 0.121c 0.33 0.495 0.781 0.737 1.353 0.737c 0.385 0 0.682 -0.22 0.88 -0.671c 0.121 -0.297 0.187 -0.748 0.187 -1.353c 0 -0.693 -0.088 -1.177 -0.253 -1.463c -0.275 -0.451 -0.649 -0.682 -1.122 -0.682c -0.737 0 -1.32 0.528 -1.518 1.1c 0.033 -0.011 0.055 0 0.099 0c 0.33 0 0.605 0.253 0.605 0.583c 0 0.341 -0.275 0.572 -0.605 0.572c -0.385 0 -0.55 -0.209 -0.55 -0.616c 0 -1.1 0.891 -2.035 1.991 -2.035c 0.671 0 1.243 0.242 1.705 0.726c 0.462 0.484 0.693 1.067 0.693 1.738c 0 0.638 -0.187 1.188 -0.561 1.661c -0.407 0.517 -0.913 0.77 -1.529 0.77c -0.517 0 -0.968 -0.165 -1.331 -0.495v 1.958c 0.297 -0.088 0.583 -0.132 0.88 -0.132c 0.506 0 0.946 0.121 1.32 0.374c 0.341 0.209 0.572 0.418 0.704 0.616c 0.066 0.088 0.099 0.154 0.099 0.187c 0 0.11 -0.055 0.165 -0.165 0.165c -0.605 -0.231 -1.122 -0.352 -1.54 -0.352c -0.495 0 -0.968 0.099 -1.419 0.308c -0.055 0.022 -0.099 0.033 -0.143 0.033c -0.099 0 -0.154 -0.099 -0.154 -0.308v -3.212c 0 -0.231 0 -0.33 0.198 -0.33Z "/></symbol><symbol id="g8B3FA07D93F5CD200BBF8A3D70170575" overflow="visible"><path d="M 0 0m 5.225 6.644c 0.077 0.099 0.11 0.242 0.11 0.44h -2.662c -0.759 0 -1.188 0.044 -1.265 0.143c -0.033 0.033 -0.066 0.11 -0.088 0.209h -0.341l -0.374 -2.332h 0.363c 0.11 0.616 0.198 0.946 0.264 1.001c 0.033 0.033 0.374 0.055 1.023 0.055h 2.156l -1.166 -1.65c -0.891 -1.265 -1.331 -2.629 -1.331 -4.114c 0 -0.429 0.176 -0.638 0.539 -0.638c 0.363 0 0.539 0.209 0.539 0.638v 0.561c 0 1.672 0.264 2.882 0.781 3.619Z "/></symbol><symbol id="g7783EC9FB0C16305C83035E8146994B5" overflow="visible"><path d="M 0 0m 2.168 1.784c 0.104 0 0.216 0.224 0.216 0.32c 0 0.08 -0.032 0.16 -0.112 0.16h -1.752c -0.096 0 -0.2 -0.184 -0.2 -0.328c 0 -0.08 0.048 -0.152 0.12 -0.152Z "/></symbol><symbol id="g8C50DFC0B8272CD73341C65811BD0E92" overflow="visible"><path d="M 0 0m 2.304 0.976v 2.776c 0 0.48 0.008 0.968 0.024 1.072c 0 0.04 -0.016 0.04 -0.048 0.04c -0.44 -0.272 -0.864 -0.472 -1.568 -0.8c 0.016 -0.088 0.048 -0.168 0.12 -0.216c 0.368 0.152 0.544 0.2 0.696 0.2c 0.136 0 0.16 -0.192 0.16 -0.464v -2.608c 0 -0.664 -0.216 -0.704 -0.776 -0.728c -0.048 -0.048 -0.048 -0.216 0 -0.264c 0.392 0.008 0.68 0.016 1.112 0.016c 0.384 0 0.576 -0.008 0.976 -0.016c 0.048 0.048 0.048 0.216 0 0.264c -0.56 0.024 -0.696 0.064 -0.696 0.728Z "/></symbol><symbol id="g17B77B0884E370928E37ECB91408B9E1" overflow="visible"><path d="M 0 0m 7.648 5.44c -0.152 0 -0.672 0.024 -0.824 0.024c -0.12 0 -0.184 -0.064 -0.184 -0.184c 0 -0.08 0.048 -0.12 0.144 -0.128c 0.296 -0.008 0.44 -0.096 0.44 -0.272c 0 -0.048 -0.032 -0.128 -0.096 -0.248l -2.096 -3.632l -0.28 3.816c -0.032 0.288 0.16 0.336 0.52 0.336c 0.168 0 0.248 0.064 0.248 0.192c 0 0.08 -0.048 0.12 -0.152 0.12c -0.176 0 -0.792 -0.024 -0.968 -0.024c -0.152 0 -0.68 0.024 -0.832 0.024c -0.12 0 -0.184 -0.064 -0.184 -0.192c 0 -0.08 0.072 -0.12 0.224 -0.12c 0.248 0 0.376 -0.056 0.384 -0.168l 0.048 -0.6l -1.952 -3.384l -0.288 3.904c -0.024 0.2 0.312 0.248 0.568 0.248c 0.136 0 0.2 0.064 0.2 0.192c 0 0.08 -0.048 0.12 -0.144 0.12c -0.176 0 -0.8 -0.024 -0.976 -0.024c -0.152 0 -0.68 0.024 -0.832 0.024c -0.12 0 -0.176 -0.064 -0.176 -0.184c 0 -0.088 0.08 -0.128 0.232 -0.128c 0.336 0 0.368 -0.016 0.384 -0.256l 0.36 -4.84c 0.008 -0.152 0.064 -0.232 0.16 -0.232c 0.104 0.016 0.144 0.04 0.208 0.16c 0.008 0.008 0.008 0.016 0.008 0.024l 2.28 3.944l 0.288 -3.896c 0.008 -0.152 0.064 -0.232 0.16 -0.232c 0.08 0 0.152 0.056 0.216 0.168l 2.608 4.504c 0.216 0.392 0.368 0.616 0.856 0.656c 0.144 0.016 0.184 0.056 0.184 0.192c 0 0.08 -0.04 0.12 -0.128 0.12c -0.112 0 -0.496 -0.024 -0.608 -0.024Z "/></symbol><symbol id="g826D2F4A0230094444E649B7D92F1243" overflow="visible"><path d="M 0 0m 2.8896 1.7864c 0 0.6328 -0.112 1.1144 -0.3304 1.4448c -0.1792 0.28 -0.5376 0.4872 -0.9688 0.4872c -0.1792 0 -0.3416 -0.028 -0.4816 -0.0896c -0.616 -0.2576 -0.8176 -0.9744 -0.8176 -1.8424c 0 -0.1904 0.0112 -0.3696 0.028 -0.5432c 0.0952 -0.7336 0.4368 -1.3552 1.2712 -1.3552c 0.1792 0 0.3416 0.028 0.4816 0.0896c 0.616 0.252 0.8176 0.952 0.8176 1.8088Z m -0.6384 1.2432c 0.0616 -0.2072 0.0952 -0.5936 0.0952 -1.1704c 0 -0.5488 -0.0224 -0.9352 -0.0728 -1.1648c -0.0672 -0.3304 -0.3024 -0.6048 -0.6832 -0.6048c -0.14 0 -0.28 0.0448 -0.4088 0.14c -0.1736 0.1288 -0.28 0.3808 -0.3248 0.7672c -0.0168 0.1288 -0.0224 0.4144 -0.0224 0.8624c 0 0.5432 0.028 0.9184 0.084 1.12c 0.0952 0.3584 0.3192 0.5376 0.672 0.5376c 0.336 0 0.5824 -0.2184 0.6608 -0.4872Z "/></symbol><symbol id="g9EC2FBF0332AF9453F122699A0413196" overflow="visible"><path d="M 0 0m 1.596 3.7184c -0.2968 0 -0.5488 -0.084 -0.7672 -0.2464c -0.2408 -0.1848 -0.3584 -0.4144 -0.3584 -0.7c 0 -0.3136 0.196 -0.5936 0.4312 -0.7504c 0.0224 -0.0168 0.1008 -0.0616 0.2296 -0.14c -0.5544 -0.2464 -0.8288 -0.5824 -0.8288 -1.0136c 0 -0.3136 0.14 -0.56 0.42 -0.7448c 0.2464 -0.1568 0.532 -0.2352 0.8624 -0.2352c 0.336 0 0.6272 0.0896 0.8792 0.2744c 0.2744 0.2072 0.4144 0.4704 0.4144 0.7952c 0 0.3752 -0.2128 0.6552 -0.4592 0.8288c -0.0336 0.0224 -0.1624 0.1008 -0.392 0.2296c 0.4536 0.2296 0.6832 0.5152 0.6832 0.8568c 0 0.532 -0.5432 0.8456 -1.1144 0.8456Z m 0.7784 -0.8456c 0 -0.0896 -0.0224 -0.1736 -0.0616 -0.2576c -0.0672 -0.1344 -0.1736 -0.252 -0.3136 -0.3472c -0.0616 -0.0448 -0.1064 -0.0728 -0.1344 -0.0896l -0.056 -0.0224l -0.7112 0.4088c -0.196 0.112 -0.2912 0.252 -0.2912 0.42c 0 0.3416 0.4032 0.5264 0.7784 0.5264c 0.4088 0 0.7896 -0.2576 0.7896 -0.6384Z m -1.6968 -2.0048c 0 0.3752 0.224 0.672 0.6776 0.8848c 0.2744 -0.1624 0.5208 -0.3024 0.7392 -0.4312c 0.2744 -0.1624 0.4088 -0.3472 0.4088 -0.56c 0 -0.2072 -0.1008 -0.3752 -0.308 -0.4984c -0.1736 -0.1008 -0.3752 -0.1512 -0.5992 -0.1512c -0.476 0 -0.9184 0.308 -0.9184 0.756Z "/></symbol><symbol id="gD16162A8E6BC5125899DC596673576EF" overflow="visible"><path d="M 0 0m 0.6664 2.3744c 0.1792 0 0.3136 0.1344 0.3136 0.3136c 0 0.2016 -0.1064 0.308 -0.3136 0.3136c 0.1232 0.2632 0.4032 0.476 0.7672 0.476c 0.4928 0 0.8176 -0.3696 0.8176 -0.8624c 0 -0.2688 -0.0952 -0.5264 -0.2912 -0.7784c -0.0952 -0.1288 -0.168 -0.2184 -0.2184 -0.2688l -1.3272 -1.316c -0.0728 -0.0672 -0.0616 -0.084 -0.0616 -0.252h 2.3072l 0.1736 1.0528h -0.2352c -0.0392 -0.2968 -0.084 -0.4704 -0.1344 -0.5096c -0.028 -0.0168 -0.2016 -0.028 -0.532 -0.028h -0.952c 0.3752 0.3304 0.7224 0.6272 1.0528 0.8904c 0.252 0.196 0.4312 0.3696 0.5432 0.5208c 0.168 0.2184 0.252 0.448 0.252 0.6888c 0 0.3472 -0.1344 0.6216 -0.4088 0.8232c -0.2408 0.1848 -0.5432 0.28 -0.9016 0.28c -0.308 0 -0.5712 -0.0896 -0.8008 -0.2688c -0.2408 -0.196 -0.364 -0.4424 -0.364 -0.7448c 0 -0.1904 0.14 -0.3304 0.3136 -0.3304Z "/></symbol><symbol id="gB857CD5703F41BDF509E4EE0489893D" overflow="visible"><path d="M 0 0m 1.6968 3.7184c -0.2408 -0.2352 -0.5992 -0.3528 -1.0864 -0.3528v -0.2464c 0.3304 0 0.5936 0.0504 0.7952 0.1456v -2.7888c 0 -0.0728 -0.0056 -0.1176 -0.0224 -0.14c -0.028 -0.0616 -0.196 -0.0952 -0.504 -0.0952h -0.2296v -0.2408l 0.9968 0.0224l 1.0024 -0.0224v 0.2408h -0.2296c -0.308 0 -0.476 0.0336 -0.5096 0.0952c -0.0112 0.0224 -0.0168 0.0672 -0.0168 0.14v 3.0632c 0 0.1512 -0.0224 0.1792 -0.196 0.1792Z "/></symbol><symbol id="g8620D4FBE966A3B5BE9D3ED2CA359DA3" overflow="visible"><path d="M 0 0m 1.9768 1.9768c 0.3752 0.1512 0.7336 0.4816 0.7336 0.9576c 0 0.252 -0.1344 0.4536 -0.3976 0.5992c -0.2184 0.1232 -0.4648 0.1848 -0.7392 0.1848c -0.2744 0 -0.5152 -0.056 -0.7224 -0.1736c -0.252 -0.14 -0.3808 -0.336 -0.3808 -0.588c 0 -0.2128 0.1064 -0.3192 0.3136 -0.3192c 0.1736 0 0.3024 0.1344 0.3024 0.308c 0 0.1736 -0.0896 0.2744 -0.2632 0.3024c 0.1624 0.1736 0.4032 0.2632 0.7336 0.2632c 0.364 0 0.5712 -0.2184 0.5712 -0.5768c 0 -0.2632 -0.0728 -0.476 -0.2128 -0.644c -0.1568 -0.1848 -0.2688 -0.2128 -0.5936 -0.2352c -0.1512 -0.0112 -0.252 0.0056 -0.252 -0.1064c 0 -0.0672 0.056 -0.1008 0.1624 -0.1008h 0.2968c 0.4816 0 0.7168 -0.364 0.7168 -0.868c 0 -0.4928 -0.224 -0.868 -0.6944 -0.868c -0.4088 0 -0.7056 0.112 -0.8904 0.3416c 0.196 0.0224 0.2968 0.1344 0.2968 0.3304c 0 0.1848 -0.14 0.3248 -0.3248 0.3248c -0.2184 0 -0.3304 -0.112 -0.3304 -0.3416c 0 -0.2856 0.1456 -0.5152 0.4312 -0.6776c 0.2408 -0.1344 0.5152 -0.2016 0.8288 -0.2016c 0.3416 0 0.6384 0.0952 0.896 0.2856c 0.28 0.2072 0.42 0.476 0.42 0.8064c 0 0.5208 -0.4536 0.8792 -0.9016 0.9968Z "/></symbol></defs></svg>